<?xml version="1.0" encoding="utf-8"?>
<!-- Generator: Adobe Illustrator 12.0.0, SVG Export Plug-In . SVG Version: 6.00 Build 51448)  -->
<!DOCTYPE svg PUBLIC "-//W3C//DTD SVG 1.1//EN" "http://www.w3.org/Graphics/SVG/1.1/DTD/svg11.dtd" [
	<!ENTITY ns_svg "http://www.w3.org/2000/svg">
	<!ENTITY ns_xlink "http://www.w3.org/1999/xlink">
]>
<svg  version="1.1" id="Layer_1" xmlns="&ns_svg;" xmlns:xlink="&ns_xlink;" width="94.463" height="99.104"
	 viewBox="0 0 94.463 99.104" overflow="visible" enable-background="new 0 0 94.463 99.104" xml:space="preserve">
<path fill="#613812" d="M92.979,62.158l-15.03-4.884c-0.216-0.07-0.439-0.106-0.664-0.106c-0.932,0-1.752,0.598-2.043,1.486
	c-0.365,1.128,0.254,2.342,1.379,2.706l15.029,4.884c0.217,0.071,0.441,0.106,0.667,0.106c0.933,0,1.753-0.597,2.041-1.484
	C94.723,63.738,94.104,62.522,92.979,62.158"/>
<path fill="#613812" d="M64.544,25.725c0.37,0.269,0.806,0.411,1.261,0.411c0.685,0,1.336-0.331,1.74-0.887l9.285-12.783
	c0.339-0.464,0.476-1.031,0.387-1.597c-0.09-0.568-0.396-1.066-0.86-1.403c-0.369-0.269-0.806-0.411-1.261-0.411
	c-0.687,0-1.338,0.331-1.741,0.887l-9.289,12.783c-0.336,0.464-0.472,1.032-0.381,1.599C63.775,24.891,64.081,25.389,64.544,25.725"
	/>
<path fill="#613812" d="M75.242,40.453c0.29,0.889,1.111,1.486,2.043,1.486c0.225,0,0.448-0.036,0.664-0.106l15.027-4.886
	c0.547-0.177,0.99-0.556,1.252-1.068c0.261-0.512,0.307-1.094,0.13-1.64c-0.29-0.888-1.11-1.485-2.044-1.485
	c-0.225,0-0.449,0.036-0.666,0.106l-15.027,4.883C75.494,38.111,74.875,39.327,75.242,40.453"/>
<path fill="#613812" d="M67.545,73.855c-0.404-0.555-1.056-0.887-1.742-0.887c-0.455,0-0.892,0.142-1.261,0.411
	c-0.957,0.697-1.17,2.045-0.473,3.003l9.287,12.784c0.402,0.553,1.053,0.884,1.74,0.884c0.455,0,0.891-0.142,1.26-0.411
	c0.465-0.337,0.771-0.835,0.86-1.402s-0.046-1.136-0.384-1.601L67.545,73.855z"/>
<path fill="#613812" d="M47.091,79.006c-1.184,0-2.177,0.965-2.177,2.149v15.799c0,1.187,0.993,2.15,2.177,2.15
	c1.186,0,2.178-0.964,2.178-2.15V81.155C49.269,79.971,48.277,79.006,47.091,79.006"/>
<path fill="#613812" d="M19.092,60.293c0.261-0.512,0.306-1.094,0.128-1.639c-0.287-0.89-1.107-1.486-2.04-1.486
	c-0.225,0-0.45,0.036-0.667,0.106L1.486,62.158c-0.546,0.177-0.99,0.556-1.25,1.067c-0.261,0.513-0.307,1.095-0.129,1.64
	c0.288,0.89,1.11,1.487,2.044,1.487c0.225,0,0.448-0.035,0.664-0.105l15.026-4.886C18.387,61.185,18.831,60.805,19.092,60.293"/>
<path fill="#613812" d="M26.919,25.249c0.404,0.555,1.055,0.887,1.742,0.887c0.455,0,0.891-0.142,1.261-0.411
	c0.957-0.697,1.171-2.045,0.476-3.004l-9.291-12.78c-0.402-0.556-1.053-0.887-1.741-0.887c-0.456,0-0.892,0.143-1.262,0.411
	c-0.463,0.338-0.768,0.836-0.857,1.403c-0.09,0.567,0.046,1.134,0.384,1.597L26.919,25.249z"/>
<path fill="#613812" d="M47.091,20.102c1.186,0,2.178-0.965,2.178-2.15V2.15c0-1.186-0.992-2.15-2.178-2.15
	c-1.184,0-2.177,0.964-2.177,2.15v15.801C44.914,19.137,45.907,20.102,47.091,20.102"/>
<path fill="#613812" d="M1.486,36.95l15.026,4.883c0.216,0.069,0.439,0.105,0.664,0.105c0.934,0,1.755-0.597,2.043-1.487
	c0.178-0.546,0.133-1.127-0.128-1.639c-0.26-0.512-0.705-0.892-1.25-1.069L2.814,32.861c-0.217-0.071-0.441-0.107-0.666-0.107
	c-0.933,0-1.753,0.597-2.041,1.485C-0.26,35.366,0.359,36.582,1.486,36.95"/>
<path fill="#613812" d="M29.92,73.38c-0.37-0.27-0.806-0.411-1.261-0.411c-0.687,0-1.338,0.331-1.742,0.888L17.632,86.64
	c-0.697,0.958-0.484,2.305,0.474,3.003c0.369,0.268,0.805,0.41,1.261,0.41c0.688,0,1.339-0.331,1.741-0.886l9.288-12.785
	C31.093,75.425,30.879,74.077,29.92,73.38"/>
<path fill="#613812" d="M35.305,61.482c-3.185-3.188-4.94-7.424-4.943-11.929c0.003-4.505,1.758-8.741,4.943-11.928
	c3.185-3.186,7.411-4.941,11.917-4.943l0.112,0.003v33.733l-0.112,0.004C42.72,66.423,38.494,64.669,35.305,61.482 M61.787,34.999
	c-3.886-3.888-9.055-6.03-14.555-6.03c-5.499,0-10.668,2.142-14.553,6.03c-3.888,3.883-6.03,9.052-6.03,14.555
	s2.142,10.672,6.03,14.555c3.884,3.887,9.049,6.027,14.544,6.027c5.514,0,10.68-2.141,14.564-6.027
	c3.891-3.885,6.031-9.054,6.029-14.555C67.818,44.053,65.677,38.884,61.787,34.999"/>
</svg>
