<?xml version="1.0" encoding="utf-8"?>
<!-- Generator: Adobe Illustrator 12.0.0, SVG Export Plug-In . SVG Version: 6.00 Build 51448)  -->
<!DOCTYPE svg PUBLIC "-//W3C//DTD SVG 1.1//EN" "http://www.w3.org/Graphics/SVG/1.1/DTD/svg11.dtd" [
	<!ENTITY ns_svg "http://www.w3.org/2000/svg">
	<!ENTITY ns_xlink "http://www.w3.org/1999/xlink">
]>
<svg  version="1.1" id="Layer_1" xmlns="&ns_svg;" xmlns:xlink="&ns_xlink;" width="69.298" height="92.685"
	 viewBox="0 0 69.298 92.685" overflow="visible" enable-background="new 0 0 69.298 92.685" xml:space="preserve">
<path fill="#613812" d="M25.879,28.481c0.896,0,1.572-0.729,1.572-1.626V2.971c0-0.897-0.676-1.627-1.572-1.627
	s-1.574,0.729-1.574,1.627v23.885C24.305,27.752,24.982,28.481,25.879,28.481"/>
<path fill="#613812" d="M36.961,46.644l6.742-6.743l0.018,13.502L36.961,46.644z M26.637,52.337L26.357,41.56
	c-0.006-0.262,0.043-0.517,0.133-0.756l5.84,5.84L26.637,52.337z M23.106,41.646l0.358,13.862l-1.832,1.832l0.406-15.694
	c0.053-2.015-1.074-3.905-2.869-4.819c-2.869-1.458-4.73-4.635-4.777-8.12l9.72,9.72C23.446,39.346,23.076,40.474,23.106,41.646
	 M24.299,87.662c0.011,0.469-0.162,0.913-0.49,1.249c-0.655,0.673-1.816,0.673-2.471,0c-0.328-0.336-0.502-0.78-0.489-1.248
	l0.661-25.569l2.072-2.071L24.299,87.662z M46.908,4.472c0.313,0.316,0.629,0.661,0.915,1.005c3.378,4.975,5.361,11.668,5.94,19.733
	l-6.819,6.818L46.908,4.472z M50.467,87.663c0.014,0.468-0.16,0.912-0.488,1.248c-0.655,0.673-1.816,0.673-2.471,0
	c-0.332-0.342-0.502-0.782-0.489-1.293l-0.035-26.321l2.765,2.765L50.467,87.663z M49.791,59.474l-2.813-2.813l-0.026-20.007
	l6.987-6.987c0.076,8.489-1.233,18.272-3.953,29.024C49.902,59.022,49.84,59.271,49.791,59.474 M52.959,62.642l-0.065-2.162
	c0.044-0.192,0.138-0.564,0.246-0.992c0.883-3.493,3.229-12.774,3.901-23.575c0.207-3.316,0.231-6.459,0.084-9.433l11.692-11.692
	c0.64-0.64,0.64-1.676,0-2.316c-0.64-0.639-1.676-0.639-2.315,0l-9.726,9.727c-0.856-7.481-2.96-13.717-6.308-18.614
	c-0.028-0.042-0.057-0.081-0.088-0.118C49.08,1.885,47.186,0,45.543,0c-0.346,0-0.672,0.073-0.974,0.219
	c-0.558,0.271-0.919,0.845-0.918,1.466l0.045,33.592l-9.051,9.051l-5.506-5.599c3.06-2.276,5.056-6.076,5.056-10.154V2.97
	c0-0.896-0.9-1.626-1.798-1.626S30.6,2.073,30.6,2.97v25.605c0,3.226-1.487,6.201-3.967,7.82l-7.965-8.004
	c0.162,0.055,0.283,0.09,0.465,0.09c0.896,0,1.576-0.729,1.576-1.626V2.97c0-0.896-0.678-1.626-1.574-1.626
	s-1.573,0.729-1.573,1.626v23.885c0,0.181,0.065,0.351,0.121,0.513l-3.269-3.297V2.97c0-0.896-0.677-1.626-1.574-1.626
	c-0.896,0-1.572,0.729-1.572,1.626v17.849l-8.413-8.348c-0.64-0.639-1.709-0.639-2.349,0c-0.64,0.641-0.59,1.676,0.05,2.316
	l10.712,10.662v3.126c0,4.748,2.509,9.125,6.492,11.151c0.685,0.348,1.08,1.068,1.062,1.833L18.31,60.68L0.481,78.5
	c-0.64,0.639-0.644,1.676-0.004,2.315c0.319,0.319,0.737,0.479,1.155,0.479s0.836-0.16,1.156-0.479L18.17,65.435l-0.572,22.144
	c-0.036,1.354,0.465,2.633,1.41,3.604c0.945,0.969,2.211,1.502,3.565,1.502s2.62-0.533,3.565-1.504
	c0.945-0.969,1.445-2.248,1.41-3.603l-0.795-30.728l7.892-7.892l9.082,9.082l0.039,29.537c-0.035,1.354,0.466,2.633,1.411,3.603
	c0.945,0.971,2.211,1.504,3.564,1.504c1.354,0,2.62-0.533,3.566-1.502c0.945-0.972,1.445-2.253,1.41-3.611l-0.613-20.153
	l13.396,13.397c0.32,0.319,0.738,0.479,1.158,0.479c0.418,0,0.838-0.16,1.157-0.479c0.64-0.64,0.64-1.677,0-2.315L52.959,62.642z"/>
</svg>
