<?xml version="1.0" encoding="utf-8"?>
<!-- Generator: Adobe Illustrator 12.0.0, SVG Export Plug-In . SVG Version: 6.00 Build 51448)  -->
<!DOCTYPE svg PUBLIC "-//W3C//DTD SVG 1.1//EN" "http://www.w3.org/Graphics/SVG/1.1/DTD/svg11.dtd" [
	<!ENTITY ns_svg "http://www.w3.org/2000/svg">
	<!ENTITY ns_xlink "http://www.w3.org/1999/xlink">
]>
<svg  version="1.1" id="Layer_1" xmlns="&ns_svg;" xmlns:xlink="&ns_xlink;" width="87.863" height="86.596"
	 viewBox="0 0 87.863 86.596" overflow="visible" enable-background="new 0 0 87.863 86.596" xml:space="preserve">
<path fill="#613812" d="M18.512,64.803c0.528-3.028-0.602-5.755-2.523-6.091c-1.923-0.336-3.91,1.848-4.438,4.875
	c-0.529,3.028,0.602,5.755,2.523,6.09C15.995,70.013,17.983,67.831,18.512,64.803"/>
<path fill="#613812" d="M7.179,73.615c-2.077-2.265-4.929-3.03-6.366-1.709c-1.438,1.319-0.917,4.224,1.16,6.489
	c2.078,2.264,4.931,3.029,6.368,1.709C9.778,78.785,9.258,75.879,7.179,73.615"/>
<path fill="#613812" d="M21.664,81.022c-0.005-3.073-1.594-5.563-3.544-5.56c-1.953,0.005-3.529,2.5-3.523,5.573
	c0.006,3.074,1.593,5.563,3.544,5.56C20.093,86.592,21.67,84.096,21.664,81.022"/>
<path fill="#613812" d="M13.972,38.922L54.428,73.1l29.868-35.354L43.84,3.568L13.972,38.922z M53.648,76.317L10.93,40.228
	c-0.625-0.526-0.704-1.462-0.176-2.087l31.78-37.616c0.526-0.624,1.462-0.703,2.086-0.175l42.719,36.09
	c0.624,0.527,0.703,1.461,0.175,2.086L55.735,76.143C55.207,76.767,54.273,76.846,53.648,76.317"/>
<path fill="#613812" d="M26.945,35.676c-0.625-0.528-0.703-1.462-0.176-2.087L48.611,7.735c0.527-0.624,1.462-0.703,2.087-0.175
	c0.624,0.527,0.703,1.462,0.175,2.086L29.032,35.5C28.504,36.125,27.569,36.204,26.945,35.676"/>
<path fill="#613812" d="M10.093,49.724c-0.186-0.156-0.332-0.358-0.424-0.593c-0.197-0.506-0.103-1.08,0.249-1.493l4.934-5.842
	c0.528-0.625,1.462-0.703,2.086-0.176c0.625,0.528,0.704,1.462,0.176,2.087l-3.171,3.754l11.324,1.413
	c0.812,0.1,1.387,0.841,1.285,1.652s-0.841,1.388-1.652,1.286l-14.035-1.751C10.574,50.025,10.308,49.905,10.093,49.724"/>
<path fill="#613812" d="M58.964,47.817l0.281-0.344c0.199-0.508,0.409-0.977,0.624-1.395c0.142-0.276,3.396-6.814-2.984-10.75
	c-4.707-2.903-12.315-3.029-15.564-3.083c-0.463-0.008-0.816-0.014-1.089-0.024c0.063,0.266,0.14,0.61,0.24,1.062
	c0.699,3.173,2.339,10.604,6.122,14.639c5.127,5.468,10.886,0.977,11.128,0.783C58.09,48.411,58.508,48.112,58.964,47.817
	 M60.222,48.149l-0.4,0.49c-0.04,0.048-0.087,0.09-0.139,0.124c-0.454,0.289-0.865,0.581-1.223,0.867
	c-0.277,0.222-6.863,5.358-12.729-0.899c-4.005-4.271-5.633-11.647-6.415-15.193c-0.149-0.677-0.303-1.376-0.375-1.545
	c-0.104-0.167-0.118-0.378-0.045-0.557c0.025-0.074,0.06-0.136,0.123-0.206c0.049-0.064,0.096-0.108,0.153-0.146
	c0.164-0.12,0.387-0.154,0.578-0.082c0.181,0.036,0.896,0.048,1.589,0.06c3.631,0.06,11.183,0.187,16.166,3.259
	c7.301,4.503,3.578,11.981,3.417,12.296c-0.209,0.406-0.412,0.867-0.606,1.371C60.292,48.047,60.262,48.101,60.222,48.149"/>
<path fill="#613812" d="M41.361,33.146c0.691,3.133,2.296,10.33,5.888,14.162c1.504,1.604,3.207,2.418,5.062,2.418l0,0
	c2.664,0,4.762-1.651,4.85-1.723c0.36-0.287,0.762-0.577,1.197-0.861l0.104-0.129c0.194-0.485,0.399-0.938,0.608-1.346
	c0.126-0.245,3.021-6.07-2.657-9.573C51.942,33.337,44.565,33.199,41.361,33.146 M52.271,52.724c-2.676,0-5.097-1.137-7.197-3.377
	c-4.173-4.451-5.837-11.989-6.636-15.612c-0.104-0.47-0.256-1.156-0.32-1.37c-0.201-0.39-0.224-0.855-0.056-1.267
	c0.052-0.147,0.139-0.297,0.262-0.439c0.098-0.124,0.209-0.227,0.338-0.314c0.369-0.261,0.862-0.344,1.294-0.22
	c0.197,0.019,0.901,0.031,1.375,0.039c3.733,0.062,11.452,0.19,16.646,3.394c8,4.934,3.924,13.125,3.745,13.471
	c-0.194,0.38-0.386,0.812-0.567,1.284c-0.056,0.144-0.135,0.282-0.237,0.407l-0.4,0.488c-0.099,0.122-0.217,0.227-0.349,0.313
	c-0.43,0.273-0.813,0.547-1.145,0.812C58.715,50.578,55.92,52.724,52.271,52.724"/>
<path fill="#613812" d="M63.463,51.206c-0.207,0.254-0.58,0.291-0.833,0.084l-10.453-8.543c-0.253-0.207-0.291-0.58-0.084-0.832
	c0.207-0.254,0.579-0.291,0.832-0.084l10.454,8.543C63.632,50.581,63.67,50.954,63.463,51.206"/>
<path fill="#613812" d="M63.005,52.323c-0.342,0-0.677-0.119-0.943-0.336l-10.455-8.543c-0.636-0.521-0.73-1.463-0.21-2.099
	c0.284-0.348,0.705-0.547,1.155-0.547c0.342,0,0.677,0.119,0.942,0.336l10.453,8.543c0.31,0.252,0.5,0.609,0.54,1.005
	c0.04,0.396-0.075,0.784-0.327,1.093C63.875,52.124,63.455,52.323,63.005,52.323"/>
</svg>
