<?xml version="1.0" encoding="utf-8"?>
<!-- Generator: Adobe Illustrator 12.0.0, SVG Export Plug-In . SVG Version: 6.00 Build 51448)  -->
<!DOCTYPE svg PUBLIC "-//W3C//DTD SVG 1.1//EN" "http://www.w3.org/Graphics/SVG/1.1/DTD/svg11.dtd" [
	<!ENTITY ns_svg "http://www.w3.org/2000/svg">
	<!ENTITY ns_xlink "http://www.w3.org/1999/xlink">
]>
<svg  version="1.1" id="Layer_1" xmlns="&ns_svg;" xmlns:xlink="&ns_xlink;" width="7.08" height="7.08" viewBox="0 0 7.08 7.08"
	 overflow="visible" enable-background="new 0 0 7.08 7.08" xml:space="preserve">
<path fill="#613A17" d="M3.366,5.899c0.82-0.035,1.586-0.369,2.17-0.953C6.152,4.329,6.491,3.51,6.491,2.638
	S6.152,0.947,5.536,0.331c-0.055-0.055-0.143-0.055-0.195,0C5.286,0.384,5.286,0.471,5.34,0.526L5.093,0.772
	C4.614,0.295,3.956,0,3.228,0c-1.455,0-2.64,1.184-2.64,2.64c0,0.729,0.298,1.391,0.777,1.869L1.12,4.754
	C1.119,4.752,1.117,4.751,1.116,4.75c-0.055-0.055-0.142-0.055-0.195,0c-0.055,0.053-0.055,0.141,0,0.195
	c0.583,0.583,1.35,0.918,2.169,0.952v0.44C2.685,6.368,2.302,6.53,1.997,6.803H0.138C0.062,6.803,0,6.866,0,6.942
	S0.062,7.08,0.138,7.08H5.14c0.076,0,0.138-0.062,0.138-0.138S5.216,6.803,5.14,6.803H4.458C4.153,6.53,3.772,6.368,3.366,6.338
	V5.899L3.366,5.899z M5.358,1.618H4.506C4.442,1.32,4.35,1.046,4.231,0.809c-0.08-0.161-0.169-0.3-0.266-0.414
	C4.579,0.596,5.081,1.042,5.358,1.618z M2.122,2.64c0-0.258,0.02-0.509,0.058-0.747h0.91v1.493H2.18
	C2.142,3.149,2.122,2.898,2.122,2.64z M4.335,2.64c0,0.258-0.021,0.509-0.059,0.747h-0.91V1.894h0.91
	C4.314,2.131,4.335,2.382,4.335,2.64z M3.366,4.983v-1.32h0.856C4.165,3.915,4.085,4.147,3.984,4.348
	C3.812,4.694,3.593,4.917,3.366,4.983z M3.366,1.618v-1.32c0.227,0.065,0.445,0.289,0.618,0.635
	c0.101,0.202,0.181,0.434,0.238,0.686H3.366z M3.09,0.297v1.32H2.233c0.059-0.252,0.139-0.483,0.238-0.686
	C2.645,0.586,2.864,0.363,3.09,0.297z M3.09,3.663v1.32C2.864,4.918,2.645,4.694,2.472,4.348c-0.1-0.201-0.18-0.434-0.238-0.686
	H3.09L3.09,3.663z M4.231,4.471C4.35,4.234,4.442,3.96,4.506,3.663h0.853c-0.277,0.575-0.78,1.021-1.393,1.223
	C4.063,4.771,4.151,4.632,4.231,4.471z M5.47,3.392C5.457,3.389,5.444,3.386,5.431,3.386H4.556C4.593,3.147,4.61,2.897,4.61,2.64
	S4.593,2.133,4.556,1.893h0.875c0.014,0,0.026-0.002,0.039-0.006c0.079,0.236,0.122,0.49,0.122,0.752
	C5.592,2.903,5.549,3.156,5.47,3.392z M2.491,0.395C2.394,0.509,2.305,0.648,2.225,0.809C2.106,1.046,2.015,1.32,1.95,1.618H1.098
	C1.374,1.042,1.878,0.596,2.491,0.395z M0.987,1.888c0.012,0.003,0.025,0.006,0.039,0.006h0.873C1.864,2.133,1.846,2.384,1.846,2.64
	c0,0.257,0.019,0.507,0.054,0.747H1.026c-0.014,0-0.027,0.002-0.039,0.006c-0.08-0.236-0.123-0.49-0.123-0.752
	C0.864,2.377,0.907,2.125,0.987,1.888z M1.098,3.663H1.95C2.015,3.96,2.106,4.234,2.224,4.471c0.081,0.161,0.17,0.3,0.268,0.415
	C1.878,4.684,1.374,4.238,1.098,3.663z M1.571,4.694C2.024,5.061,2.601,5.28,3.228,5.28c1.457,0,2.641-1.184,2.641-2.64
	c0-0.63-0.221-1.208-0.59-1.661L5.526,0.73c0.445,0.535,0.688,1.203,0.688,1.908c0,0.798-0.311,1.548-0.874,2.112
	C4.776,5.314,4.026,5.625,3.229,5.625c-0.703,0-1.368-0.241-1.903-0.685L1.571,4.694z M2.472,6.803
	C2.702,6.676,2.96,6.61,3.228,6.61c0.269,0,0.527,0.067,0.756,0.193H2.472z"/>
<path fill="#613A17" d="M5.72,6.803c-0.036,0-0.072,0.015-0.098,0.041C5.597,6.87,5.581,6.905,5.581,6.942
	c0,0.036,0.016,0.072,0.041,0.098S5.684,7.08,5.72,7.08c0.037,0,0.072-0.015,0.098-0.04c0.025-0.026,0.041-0.062,0.041-0.098
	c0-0.037-0.016-0.072-0.041-0.098C5.792,6.818,5.757,6.803,5.72,6.803z"/>
<path fill="#613A17" d="M6.941,6.803H6.278c-0.077,0-0.139,0.063-0.139,0.139S6.201,7.08,6.278,7.08h0.663
	c0.076,0,0.138-0.062,0.138-0.138S7.018,6.803,6.941,6.803z"/>
</svg>
