<?xml version="1.0" encoding="utf-8"?>
<!-- Generator: Adobe Illustrator 12.0.0, SVG Export Plug-In . SVG Version: 6.00 Build 51448)  -->
<!DOCTYPE svg PUBLIC "-//W3C//DTD SVG 1.1//EN" "http://www.w3.org/Graphics/SVG/1.1/DTD/svg11.dtd" [
	<!ENTITY ns_svg "http://www.w3.org/2000/svg">
	<!ENTITY ns_xlink "http://www.w3.org/1999/xlink">
]>
<svg  version="1.1" id="Layer_1" xmlns="&ns_svg;" xmlns:xlink="&ns_xlink;" width="20.908" height="20.908"
	 viewBox="0 0 20.908 20.908" overflow="visible" enable-background="new 0 0 20.908 20.908" xml:space="preserve">
<path fill="#613812" d="M0,10.454c0,2.839,0.012,3.195,0.063,4.31c0.051,1.113,0.228,1.873,0.485,2.538
	c0.268,0.688,0.625,1.271,1.206,1.852c0.581,0.582,1.164,0.938,1.853,1.206c0.665,0.259,1.425,0.435,2.537,0.485
	c1.114,0.052,1.471,0.063,4.31,0.063c2.84,0,3.196-0.012,4.31-0.063c1.113-0.051,1.873-0.227,2.538-0.485
	c0.688-0.268,1.271-0.624,1.853-1.206c0.581-0.581,0.938-1.164,1.205-1.852c0.259-0.665,0.436-1.425,0.486-2.538
	c0.051-1.114,0.063-1.471,0.063-4.31s-0.012-3.195-0.063-4.31c-0.051-1.113-0.228-1.873-0.486-2.538
	c-0.268-0.688-0.624-1.271-1.205-1.852c-0.582-0.582-1.165-0.938-1.853-1.206c-0.665-0.259-1.425-0.435-2.538-0.485
	C13.65,0.012,13.294,0,10.454,0c-2.839,0-3.195,0.012-4.31,0.063C5.032,0.114,4.272,0.29,3.607,0.549
	C2.919,0.816,2.336,1.173,1.755,1.755C1.174,2.336,0.816,2.919,0.549,3.606C0.291,4.271,0.114,5.031,0.063,6.145
	C0.012,7.259,0,7.615,0,10.454 M1.884,10.454c0-2.791,0.012-3.122,0.062-4.224c0.046-1.02,0.217-1.573,0.359-1.941
	c0.19-0.488,0.416-0.837,0.782-1.202c0.366-0.366,0.714-0.593,1.202-0.782C4.657,2.162,5.211,1.991,6.23,1.945
	c1.102-0.051,1.433-0.062,4.224-0.062c2.792,0,3.122,0.011,4.226,0.062c1.019,0.046,1.571,0.217,1.94,0.359
	c0.488,0.189,0.836,0.416,1.202,0.782c0.366,0.365,0.592,0.714,0.782,1.202c0.143,0.368,0.313,0.922,0.359,1.941
	c0.05,1.102,0.062,1.432,0.062,4.224s-0.012,3.122-0.062,4.224c-0.047,1.02-0.217,1.573-0.359,1.941
	c-0.19,0.488-0.416,0.837-0.782,1.202c-0.366,0.366-0.714,0.593-1.202,0.782c-0.369,0.143-0.922,0.313-1.94,0.359
	c-1.104,0.051-1.434,0.062-4.226,0.062c-2.791,0-3.122-0.011-4.224-0.062c-1.02-0.046-1.573-0.217-1.941-0.359
	c-0.488-0.189-0.836-0.416-1.202-0.782c-0.366-0.365-0.592-0.714-0.782-1.202c-0.143-0.368-0.313-0.922-0.359-1.941
	C1.896,13.576,1.884,13.245,1.884,10.454"/>
<path fill="#613812" d="M13.939,10.454c0,1.925-1.561,3.485-3.485,3.485c-1.924,0-3.483-1.561-3.483-3.485s1.56-3.485,3.483-3.485
	C12.379,6.969,13.939,8.529,13.939,10.454 M5.086,10.454c0,2.965,2.403,5.368,5.368,5.368s5.368-2.403,5.368-5.368
	s-2.403-5.368-5.368-5.368S5.086,7.489,5.086,10.454"/>
<path fill="#613812" d="M4.874,3.619c0.693,0,1.254,0.563,1.254,1.254c0,0.693-0.561,1.255-1.254,1.255
	c-0.692,0-1.255-0.562-1.255-1.255C3.619,4.182,4.182,3.619,4.874,3.619"/>
</svg>
