<?xml version="1.0" encoding="utf-8"?>
<!-- Generator: Adobe Illustrator 12.0.0, SVG Export Plug-In . SVG Version: 6.00 Build 51448)  -->
<!DOCTYPE svg PUBLIC "-//W3C//DTD SVG 1.1//EN" "http://www.w3.org/Graphics/SVG/1.1/DTD/svg11.dtd" [
	<!ENTITY ns_svg "http://www.w3.org/2000/svg">
	<!ENTITY ns_xlink "http://www.w3.org/1999/xlink">
]>
<svg  version="1.1" id="Layer_1" xmlns="&ns_svg;" xmlns:xlink="&ns_xlink;" width="88" height="45.866" viewBox="0 0 88 45.866"
	 overflow="visible" enable-background="new 0 0 88 45.866" xml:space="preserve">
<g>
	<polygon fill="#343433" points="0.933,3.855 4.234,7.167 5.46,7.167 1.803,3.496 5.216,0.291 4.019,0.291 0.933,3.197 0.933,0.291 
		0.002,0.291 0.002,7.167 0.933,7.167 	"/>
	<polygon fill="#343433" points="6.441,7.167 7.441,7.167 8.556,2.939 9.666,7.167 10.666,7.167 12.015,2.009 11.168,2.009 
		10.112,6.034 9.054,2.009 8.054,2.009 6.999,6.034 5.939,2.009 5.093,2.009 	"/>
	<path fill="#343433" d="M13.956,3.003c0.284-0.267,0.664-0.401,1.136-0.401c0.418,0,0.753,0.138,1.007,0.415
		c0.252,0.276,0.382,0.646,0.39,1.11l-3.021,0.005C13.51,3.646,13.673,3.271,13.956,3.003 M15.229,7.301
		c0.329,0,0.653-0.033,0.974-0.102c0.318-0.067,0.63-0.166,0.934-0.295V6.104c-0.3,0.159-0.604,0.279-0.909,0.359
		c-0.306,0.079-0.621,0.119-0.946,0.119c-0.563,0-1-0.152-1.315-0.458c-0.313-0.305-0.49-0.75-0.528-1.333h3.897V4.375
		c0-0.767-0.202-1.374-0.606-1.822c-0.402-0.446-0.951-0.67-1.646-0.67c-0.773,0-1.388,0.249-1.844,0.745
		c-0.457,0.495-0.686,1.166-0.686,2.01c0,0.817,0.24,1.465,0.722,1.943C13.755,7.061,14.408,7.301,15.229,7.301"/>
	<polygon fill="#343433" points="19.357,4.648 21.979,7.167 23.084,7.167 20.233,4.422 22.969,2.009 21.885,2.009 19.357,4.233 
		19.357,0.001 18.505,0.001 18.505,7.167 19.357,7.167 	"/>
	<path fill="#343433" d="M24.698,3.003c0.284-0.267,0.663-0.401,1.135-0.401c0.418,0,0.753,0.138,1.007,0.415
		c0.253,0.276,0.382,0.646,0.389,1.11l-3.021,0.005C24.25,3.646,24.414,3.271,24.698,3.003 M25.971,7.301
		c0.329,0,0.653-0.033,0.974-0.102c0.318-0.067,0.63-0.166,0.934-0.295V6.104c-0.301,0.159-0.604,0.279-0.91,0.359
		c-0.305,0.079-0.62,0.119-0.946,0.119c-0.562,0-1-0.152-1.314-0.458c-0.315-0.305-0.49-0.75-0.528-1.333h3.898V4.375
		c0-0.767-0.202-1.374-0.606-1.822c-0.404-0.446-0.953-0.67-1.646-0.67c-0.774,0-1.391,0.249-1.845,0.745
		c-0.457,0.495-0.685,1.166-0.685,2.01c0,0.817,0.239,1.465,0.72,1.943C24.497,7.061,25.148,7.301,25.971,7.301"/>
	<path fill="#343433" d="M30.288,4.45c0-0.584,0.128-1.031,0.385-1.343c0.256-0.312,0.623-0.468,1.102-0.468
		c0.137,0,0.261,0.013,0.372,0.04c0.111,0.025,0.215,0.066,0.312,0.121l-0.007-0.87c-0.086-0.015-0.162-0.027-0.234-0.034
		c-0.069-0.008-0.135-0.012-0.192-0.012c-0.409,0-0.756,0.076-1.042,0.229c-0.285,0.151-0.517,0.385-0.694,0.698V2.009h-0.853v5.158
		h0.853V4.45z"/>
	<rect x="33.346" y="2.009" fill="#343433" width="0.847" height="5.158"/>
	<rect x="33.346" fill="#343433" width="0.847" height="1.074"/>
	<path fill="#343433" d="M2.069,33.368V16.724H0.001v19.461C1.347,36.056,2.069,35.437,2.069,33.368"/>
	<path fill="#343433" d="M28.281,30.923h1.78V17.891L26.423,30.25h-3.417l-3.919-13.312v13.984h2.007v4.286h-9.09v-4.286h1.949
		V16.669h-1.949v-4.285l9.926,0.011l2.784,9.214l2.726-9.218l9.378-0.007L36.814,2.009h-0.848v7.039H0v3.298h9.873v4.304H7.725
		v17.556c0,4.926-2.358,7.528-6.82,7.528c-0.29,0-0.593-0.015-0.904-0.037v4.17h36.818V35.209h-8.537V30.923z"/>
	<path fill="#343433" d="M40.601,23.104c-0.393,0.371-0.967,0.559-1.707,0.559h-1.932v-4.326h1.932c0.74,0,1.314,0.188,1.707,0.56
		s0.582,0.895,0.582,1.6C41.183,22.206,40.994,22.732,40.601,23.104 M42.396,18.379c-0.799-0.705-1.977-1.062-3.502-1.062h-4.266
		V30.92h2.334v-5.237h1.932c1.525,0,2.703-0.355,3.502-1.058c0.807-0.712,1.217-1.764,1.217-3.129
		C43.613,20.142,43.203,19.095,42.396,18.379"/>
	<rect x="45.697" y="16.767" fill="#343433" width="2.176" height="14.153"/>
	<path fill="#343433" d="M56.703,26.078c0,0.974-0.248,1.759-0.738,2.333c-0.486,0.57-1.117,0.848-1.926,0.848
		c-0.58,0-1.018-0.141-1.342-0.431c-0.316-0.28-0.469-0.655-0.469-1.144c0-0.614,0.201-1.03,0.611-1.273
		c0.453-0.27,1.313-0.406,2.553-0.406h1.311V26.078z M54.378,20.337c-0.543,0-1.105,0.06-1.674,0.177
		c-0.564,0.116-1.156,0.293-1.754,0.523l-0.184,0.071v2.16l0.422-0.231c0.467-0.255,0.957-0.448,1.461-0.575
		s1.029-0.191,1.563-0.191c0.807,0,1.434,0.181,1.863,0.54c0.395,0.327,0.6,0.776,0.625,1.367h-1.965
		c-1.518,0-2.684,0.302-3.467,0.896c-0.809,0.613-1.219,1.526-1.219,2.716c0,1.021,0.328,1.849,0.977,2.464
		c0.641,0.61,1.51,0.92,2.584,0.92c0.834,0,1.553-0.153,2.137-0.454c0.354-0.183,0.672-0.425,0.955-0.726v0.928h2.178v-5.864
		c0-1.56-0.379-2.746-1.127-3.531C57.003,20.737,55.867,20.337,54.378,20.337"/>
	<path fill="#343433" d="M66.617,20.337c-0.727,0-1.381,0.159-1.941,0.474c-0.336,0.188-0.648,0.435-0.934,0.737v-0.976h-2.186
		v10.349h2.186v-5.812c0-0.877,0.229-1.574,0.678-2.069c0.447-0.494,1.049-0.735,1.84-0.735c0.635,0,1.092,0.189,1.398,0.58
		c0.318,0.407,0.48,1.047,0.48,1.901v6.135h2.178v-6.188c0-1.411-0.313-2.505-0.93-3.25C68.755,20.724,67.824,20.337,66.617,20.337"
		/>
	<path fill="#343433" d="M75.464,17.797h-2.186v2.775h-1.178v1.819h1.178v5.022c0,1.313,0.26,2.207,0.793,2.729
		c0.531,0.522,1.438,0.776,2.768,0.776h1.934v-1.915h-1.934c-0.77,0-1.035-0.158-1.127-0.253c-0.074-0.077-0.248-0.362-0.248-1.338
		v-5.022h3.309v-1.819h-3.309V17.797z"/>
	<path fill="#343433" d="M87.189,25.864c-0.525-0.485-1.363-0.847-2.563-1.104l-0.553-0.122c-1.016-0.227-1.436-0.428-1.609-0.557
		c-0.213-0.159-0.313-0.365-0.313-0.648c0-0.392,0.146-0.664,0.461-0.856c0.352-0.215,0.904-0.325,1.645-0.325
		c0.498,0,0.986,0.057,1.453,0.167c0.463,0.109,0.918,0.279,1.35,0.501l0.416,0.213v-2.181l-0.18-0.071
		c-0.459-0.181-0.967-0.319-1.508-0.409c-0.535-0.089-1.115-0.134-1.723-0.134c-1.258,0-2.25,0.272-2.951,0.809
		c-0.723,0.556-1.088,1.349-1.088,2.356c0,0.833,0.252,1.502,0.748,1.99c0.488,0.476,1.238,0.815,2.291,1.037l0.564,0.133
		c1.18,0.255,1.639,0.476,1.816,0.617c0.225,0.177,0.332,0.432,0.332,0.779c0,0.375-0.152,0.647-0.479,0.855
		c-0.359,0.228-0.896,0.344-1.592,0.344c-0.537,0-1.088-0.075-1.639-0.222c-0.553-0.148-1.123-0.374-1.695-0.671l-0.418-0.218v2.337
		l0.197,0.063c0.639,0.207,1.254,0.364,1.832,0.467c0.58,0.105,1.148,0.158,1.688,0.158c1.313,0,2.365-0.287,3.133-0.851
		C87.597,29.739,88,28.936,88,27.938C88,27.062,87.726,26.364,87.189,25.864"/>
	<rect x="35.966" fill="#343433" width="0.846" height="1.074"/>
</g>
</svg>
