<?xml version="1.0" encoding="utf-8"?>
<!-- Generator: Adobe Illustrator 12.0.0, SVG Export Plug-In . SVG Version: 6.00 Build 51448)  -->
<!DOCTYPE svg PUBLIC "-//W3C//DTD SVG 1.1//EN" "http://www.w3.org/Graphics/SVG/1.1/DTD/svg11.dtd" [
	<!ENTITY ns_svg "http://www.w3.org/2000/svg">
	<!ENTITY ns_xlink "http://www.w3.org/1999/xlink">
]>
<svg  version="1.1" id="Layer_1" xmlns="&ns_svg;" xmlns:xlink="&ns_xlink;" width="187.501" height="254.413"
	 viewBox="0 0 187.501 254.413" overflow="visible" enable-background="new 0 0 187.501 254.413" xml:space="preserve">
<g id="g10" transform="matrix(1.25,0,0,-1.25,0,366.075)">
	<g id="g12" transform="scale(0.1,0.1)">
		<path id="path80" fill="#512D18" d="M1191.312,2222.1L1191.312,2222.1c-70.008-58.371-142.57-82.523-209.781-69.68
			c-57.539,10.93-111.695,49.668-148.68,105.258l95.625,54.813l129.719-70.313c3.891-2.102,8.063-3.102,12.188-3.102
			c9.102,0,17.922,4.863,22.563,13.43c6.734,12.441,2.117,28-10.328,34.742l-101.859,55.199l277.727,159.172
			c12.273,7.027,16.523,22.688,9.477,34.98c-7.031,12.273-22.703,16.523-34.977,9.484l-150.711-86.375l4.625,69.77
			c0.953,14.121-9.734,26.328-23.859,27.269c-14.047,0.93-26.336-9.758-27.281-23.871l-6.891-103.77L808.445,2302.78
			c-25.273,59.578-28.211,126.27-7.266,182.938c23.719,64.109,76.734,113.332,153.313,142.359
			c45.484,17.25,113.289,23.121,184.656,23.121c112.75,0,234.297-14.668,290.313-22.379
			C1395.844,2545.17,1294.242,2307.92,1191.312,2222.1z M444.156,2500.077c-56.844,21.531-110.75,81.922-131.078,146.851
			c-30.773,98.43-23.961,178.09-17.156,216.859c38.734-15.258,115-51.66,180.57-121.348c51.266-54.543,67.063-134.18,60.039-185.113
			c-3.828-27.777-14.164-48.617-28.359-57.179l-0.016-0.008C487.695,2487.799,462.039,2493.288,444.156,2500.077L444.156,2500.077z
			 M371.992,2226.549c-32.945-32.852-92.148-51.371-143.992-45.102c-74.469,9.09-126.773,36.16-153.891,53.66
			c24.937,23.352,73.289,62.07,139.328,84.742c54.289,18.637,114.945,4.523,148.328-16.441c17.398-10.941,28.148-23.73,29.5-35.121
			C393.25,2251.647,381.875,2236.409,371.992,2226.549z M1469.164,2674.826c-15.359,2.473-377.891,59.902-532.844,1.18
			c-114.781-43.5-162.977-117.816-183.203-172.5c-26.156-70.699-21.828-153.707,10.805-226.637
			c-15.688-10.582-74.836-52.051-121.992-105.84c-16.242,138.977-52.422,236.008-87.922,301.117
			c17.203,18.551,28.789,45.453,33.305,78.179c8.922,64.711-10.336,160.063-73.484,227.223
			c-102.156,108.578-224.484,143.18-229.641,144.59l-23.477,6.461l-7.656-23.113c-1.563-4.73-37.766-117.551,11.094-273.867
			c25.117-80.199,90.156-152.32,161.852-179.48c18.477-7,36.578-10.492,53.633-10.492c10.602,0,20.766,1.43,30.391,4.121
			c22.969-42.469,46.18-99.691,63.219-175.027c-53.625,26.027-116.437,32.867-141.937,34.617
			c-9.094,15.398-23.391,29.594-42.273,41.449c-44.813,28.16-121.641,45.742-192.227,21.52
			C83.945,2329.6,18.289,2251.608,15.555,2248.311L0,2229.569l17.914-16.492c2.945-2.703,73.656-66.594,203.898-82.516
			c8.82-1.063,17.75-1.594,26.734-1.594c59.766,0,121.383,23.133,159.641,61.293c19.125,19.066,30.672,40.75,33.719,62.68
			c36.352-3.813,106.297-15.68,144.359-51.832c8.266-55,13.266-117.766,13.266-189.32v-106.535h51.258v106.535
			c0,28.621-0.813,55.883-2.266,81.953c37.008,63.289,116.258,121.348,140.148,137.918
			c44.586-68.168,111.508-115.961,183.289-129.602c13.406-2.551,28.57-4.23,45.266-4.23c55.234,0,127.187,18.422,206.906,84.902l0,0
			c135.609,113.051,259.766,443.84,264.969,457.859l10.906,29.27L1469.164,2674.826"/>
		<path id="path82" fill="#512D18" d="M370.117,1371.456c0.375-5.672,2.945-10.844,7.227-14.586c3.875-3.383,8.844-5.25,13.992-5.25
			c6.164,0,12,2.664,16.031,7.289l74.844,85.75l12.383-65.844c1.898-10.047,10.688-17.336,20.898-17.336
			c1.313,0,2.641,0.109,3.961,0.367c11.523,2.172,19.141,13.313,16.969,24.844l-18.586,98.781l108.461,124.258l39.852-47.109
			l-13.453-108.57c-0.703-5.641,0.844-11.219,4.328-15.703c3.5-4.477,8.531-7.344,14.148-8.031l2.664-0.172
			c10.695,0,19.766,8.016,21.094,18.672l8.633,69.594l113.039-133.625c4.047-4.797,9.969-7.547,16.25-7.547
			c5.016,0,9.906,1.797,13.742,5.047c4.336,3.664,6.977,8.805,7.445,14.469c0.469,5.672-1.281,11.172-4.953,15.516l-49.602,58.625
			l82.617,13c5.609,0.875,10.547,3.891,13.891,8.484c3.352,4.594,4.703,10.219,3.82,15.828
			c-1.828,11.523-12.617,19.492-24.328,17.719l-108.164-17.016l-119.438,141.203v86.563H605.32v-86.266l-63.648-72.93
			c-1.078,0.602-2.156,1.195-3.328,1.633l-132.352,49.563c-6.266,2.328-13.047,2.109-19.102-0.641
			c-6.07-2.781-10.695-7.75-13.023-13.984c-2.336-6.242-2.117-13.016,0.648-19.094c2.766-6.063,7.727-10.688,13.969-13.031
			l118.367-44.328l-131.539-150.703C371.57,1382.612,369.727,1377.127,370.117,1371.456"/>
		<path id="path84" fill="#512D18" d="M988.305,1775.799L917.32,938.393H332.672l-70.977,837.406H988.305L988.305,1775.799z
			 M1013.992,1820.893H236c-6.578,0-12.938-2.633-17.43-7.25c-4.453-4.609-6.719-10.836-6.195-17.109l74.813-882.5
			c0.992-11.625,11.367-20.734,23.617-20.734h628.391c12.258,0,22.625,9.109,23.617,20.734l74.805,882.516
			c0.531,6.258-1.734,12.484-6.195,17.094C1026.93,1818.26,1020.586,1820.893,1013.992,1820.893"/>
	</g>
</g>
</svg>
