<?xml version="1.0" encoding="utf-8"?>
<!-- Generator: Adobe Illustrator 12.0.0, SVG Export Plug-In . SVG Version: 6.00 Build 51448)  -->
<!DOCTYPE svg PUBLIC "-//W3C//DTD SVG 1.1//EN" "http://www.w3.org/Graphics/SVG/1.1/DTD/svg11.dtd" [
	<!ENTITY ns_svg "http://www.w3.org/2000/svg">
	<!ENTITY ns_xlink "http://www.w3.org/1999/xlink">
]>
<svg  version="1.1" id="Layer_1" xmlns="&ns_svg;" xmlns:xlink="&ns_xlink;" width="75.125" height="92.19"
	 viewBox="0 0 75.125 92.19" overflow="visible" enable-background="new 0 0 75.125 92.19" xml:space="preserve">
<path fill="#613812" d="M21.146,66.2l-0.498-0.113v-0.342v-19.58v-5.572V23.958c0-1.244-0.777-2.257-2.022-2.257
	c-1.246,0-2.024,1.013-2.024,2.257v16.634v5.572v19.578v0.34l-0.381,0.113c-1.098,0.392-2.128,1.02-2.923,1.816
	c-1.444,1.439-2.285,3.434-2.282,5.475c-0.003,2.037,0.816,4.031,2.258,5.471c1.436,1.441,3.422,2.268,5.458,2.268
	c2.056,0,4.045-0.826,5.482-2.266c1.446-1.438,2.272-3.432,2.269-5.472c0.003-2.044-0.824-4.038-2.268-5.474
	C23.417,67.214,22.242,66.587,21.146,66.2 M27.943,62.942c-0.476-0.428-1.001-1.041-1.001-1.681V13.182
	c0-2.321-0.676-4.507-2.32-6.157c-1.643-1.641-3.6-2.546-5.928-2.549c-2.321,0.003-4.55,0.908-6.197,2.55
	c-1.642,1.648-2.639,3.834-2.639,6.156v48.082c0,0.638-0.185,1.25-0.66,1.678c-3.05,2.745-4.643,6.491-4.643,10.545
	c0,3.777,1.477,7.338,4.159,10.026c2.69,2.683,6.25,4.16,10.025,4.16c3.778,0,7.341-1.478,10.031-4.161
	c2.68-2.688,4.158-6.247,4.161-10.025C32.928,69.433,30.995,65.688,27.943,62.942 M31.888,26.526v25.176h9.147
	c0.992,0,1.798,0.806,1.798,1.799c0,0.992-0.806,1.798-1.798,1.798h-9.147v4.825v0.196l0.172,0.141
	c3.45,3.529,5.386,8.157,5.386,13.026c0,4.993-1.952,9.688-5.489,13.221c-3.53,3.535-8.227,5.482-13.238,5.482
	c-4.982,0-9.682-1.947-13.218-5.484C1.963,83.173-0.002,78.478,0,73.487c-0.002-4.869,1.856-9.494,5.302-13.021l0.06-0.142v-0.195
	V13.182c0-3.537,1.453-6.837,3.951-9.329C11.805,1.356,15.199,0,18.739,0h0.01c3.529,0,6.809,1.356,9.305,3.854
	c2.498,2.493,3.834,5.792,3.834,9.328v9.747h9.147c0.992,0,1.798,0.805,1.798,1.798s-0.806,1.799-1.798,1.799H31.888z
	 M71.176,27.516c1.184,0,2.242-0.657,2.98-1.85c0.127-0.204,0.07-0.47-0.127-0.607l-0.826-0.57c-0.102-0.07-0.228-0.096-0.348-0.069
	c-0.121,0.024-0.227,0.1-0.291,0.205c-0.191,0.315-0.711,1.046-1.389,1.046c-1.241,0-1.502-2.033-1.502-3.739
	c0-1.714,0.261-3.756,1.502-3.756c0.479,0,0.879,0.316,1.189,0.938c0.057,0.112,0.156,0.195,0.276,0.231
	c0.12,0.034,0.249,0.018,0.356-0.046l0.855-0.511c0.209-0.124,0.28-0.389,0.165-0.601c-0.663-1.214-1.647-1.856-2.843-1.856
	c-2.227,0-3.453,1.989-3.453,5.601C67.723,25.532,68.949,27.516,71.176,27.516 M65.266,19.654c0-0.41-0.054-1.363-0.557-1.363
	s-0.557,0.953-0.557,1.363c0,0.407,0.054,1.354,0.557,1.354S65.266,20.061,65.266,19.654 M64.709,22.458
	c-1,0-2.069-0.736-2.069-2.804c0-2.075,1.069-2.813,2.069-2.813s2.068,0.738,2.068,2.813C66.777,21.41,66.005,22.458,64.709,22.458
	 M60.313,26.694c1.258-0.803,1.979-2.063,1.979-3.457c0-1.801-1.396-3.107-3.229-3.107c-0.373,0-0.65,0.06-1.1,0.147v-1.844h3.804
	c0.248,0,0.242-0.369,0.242-0.617v-0.901c0-0.249,0.006-0.28-0.242-0.28h-5.136c-0.248,0-0.466,0.031-0.466,0.28v5.135
	c0,0.249,0.218,0.429,0.466,0.429h0.721c0.073,0,0.145-0.007,0.211-0.041c0.524-0.278,0.937-0.469,1.456-0.469
	c0.828,0,1.322,0.475,1.322,1.265c0,0.835-0.501,1.622-1.308,2.053c-0.631,0.335-1.754,0.383-2.793,0.383
	c-0.248,0-0.525,0.201-0.525,0.45v0.946c0,0.248,0.277,0.45,0.525,0.45C58.16,27.516,59.393,27.277,60.313,26.694 M48.777,27.425
	h5.586c0.248,0,0.453-0.246,0.453-0.494V26.03c0-0.249-0.205-0.403-0.453-0.403h-3.396l2.715-3.547
	c0.555-0.715,1.146-1.585,1.146-2.735c0-1.796-1.25-3.008-3.108-3.008c-1.851,0-3.079,1.167-3.373,3.205
	c-0.017,0.119,0.015,0.238,0.086,0.334c0.072,0.095,0.179,0.158,0.298,0.174l0.991,0.135c0.245,0.03,0.472-0.138,0.506-0.384
	c0.085-0.607,0.39-1.625,1.492-1.625c0.703,0,1.157,0.466,1.157,1.188c0,0.639-0.284,1.005-0.715,1.561l-3.644,4.832
	c-0.061,0.079,0.003,0.175,0.003,0.274v0.901C48.521,27.179,48.527,27.425,48.777,27.425 M74.931,53.036l-0.825-0.571
	c-0.103-0.07-0.229-0.095-0.35-0.069c-0.121,0.026-0.227,0.1-0.291,0.205c-0.191,0.314-0.71,1.046-1.387,1.046
	c-1.242,0-1.504-2.034-1.504-3.74c0-1.713,0.262-3.755,1.504-3.755c0.478,0,0.878,0.316,1.188,0.938
	c0.056,0.112,0.156,0.194,0.276,0.229c0.119,0.035,0.249,0.02,0.357-0.045l0.854-0.511c0.208-0.124,0.28-0.39,0.165-0.601
	c-0.664-1.215-1.646-1.856-2.842-1.856c-2.228,0-3.453,1.989-3.453,5.6c0,3.603,1.226,5.587,3.453,5.587
	c1.183,0,2.24-0.658,2.979-1.852C75.184,53.438,75.128,53.171,74.931,53.036 M66.167,47.63c0-0.41-0.054-1.363-0.558-1.363
	c-0.502,0-0.557,0.953-0.557,1.363c0,0.407,0.055,1.353,0.557,1.353C66.113,48.983,66.167,48.038,66.167,47.63 M67.679,47.63
	c0,1.755-0.772,2.804-2.069,2.804c-1,0-2.068-0.737-2.068-2.804c0-2.074,1.068-2.813,2.068-2.813S67.679,45.556,67.679,47.63
	 M62.322,44.509h-5.586c-0.248,0-0.571,0.133-0.571,0.382v0.9c0,0.248,0.323,0.516,0.571,0.516h3.436l-3.711,8.239
	c-0.102,0.226,0,0.475,0.227,0.577l0.9,0.396c0.059,0.026,0.122,0.036,0.186,0.036c0.053,0,0.107-0.012,0.159-0.032
	c0.112-0.043,0.202-0.129,0.25-0.238l4.55-10.211c0.063-0.14,0.051-0.267-0.033-0.395C62.617,44.552,62.475,44.509,62.322,44.509
	 M54.816,54.006v0.9c0,0.248-0.16,0.392-0.408,0.392h-5.676c-0.248,0-0.66-0.144-0.66-0.392v-0.9c0-0.249,0.412-0.506,0.66-0.506
	h2.037v-6.738l-1.203,0.47c-0.115,0.043-0.226,0.04-0.336-0.012c-0.111-0.051-0.197-0.146-0.238-0.261l-0.319-0.916
	c-0.079-0.229,0.03-0.48,0.256-0.566l3.136-1.201c0.139-0.054,0.258-0.035,0.381,0.051c0.121,0.082,0.123,0.222,0.123,0.369V53.5
	h1.84C54.656,53.5,54.816,53.757,54.816,54.006"/>
</svg>
