<?xml version="1.0" encoding="utf-8"?>
<!-- Generator: Adobe Illustrator 12.0.0, SVG Export Plug-In . SVG Version: 6.00 Build 51448)  -->
<!DOCTYPE svg PUBLIC "-//W3C//DTD SVG 1.1//EN" "http://www.w3.org/Graphics/SVG/1.1/DTD/svg11.dtd" [
	<!ENTITY ns_svg "http://www.w3.org/2000/svg">
	<!ENTITY ns_xlink "http://www.w3.org/1999/xlink">
]>
<svg  version="1.1" id="Layer_1" xmlns="&ns_svg;" xmlns:xlink="&ns_xlink;" width="98.553" height="90.264"
	 viewBox="0 0 98.553 90.264" overflow="visible" enable-background="new 0 0 98.553 90.264" xml:space="preserve">
<path fill="#613812" d="M9.81,60.722 M75.559,3.36c6.793,0,12.318,5.525,12.318,12.318c0,2.434-0.711,4.701-1.934,6.612
	L67.311,6.546C69.495,4.569,72.388,3.36,75.559,3.36 M10.834,43.361l1.507,1.69c0.29,0.325,0.449,0.746,0.448,1.186l-0.011,6.245
	c-0.001,0.438-0.161,0.859-0.451,1.184l-1.507,1.682L10.834,43.361z M37.408,36.424l-3.413-4.107L60.282,5.808l34.1,28.819
	L92.6,36.424H37.408z M16.763,47.775l21.775-1.35c1.315-0.082,2.453-0.887,2.971-2.103c0.517-1.208,0.315-2.585-0.523-3.595
	l-0.589-0.707h48.637L62.571,66.707L54.03,56.428c-1.826-2.197-4.502-3.554-7.342-3.723l-29.933-1.78L16.763,47.775z M97.494,32.062
	c-0.04-0.04-0.082-0.078-0.126-0.116l-8.841-7.471c1.708-2.51,2.71-5.538,2.71-8.796C91.237,7.034,84.204,0,75.559,0
	c-4.2,0-8.017,1.662-10.833,4.361l-1.984-1.676c-0.669-0.647-1.55-1.003-2.479-1.003c-0.959,0-1.86,0.376-2.536,1.058l-26.8,27.026
	c-1.354,1.367-1.379,3.614-0.087,4.974l6.466,7.779l-21.072,1.306c-0.236-0.511-0.544-0.991-0.925-1.418l-3.989-4.478
	c-0.377-0.422-0.919-0.665-1.486-0.665c-1.636,0-2.968,1.335-2.97,2.975L6.841,58.538C6.839,60.18,8.169,61.6,9.808,61.6H9.81
	c0.564,0,1.104-0.319,1.48-0.739l3.998-4.503c0.389-0.434,0.7-0.941,0.939-1.463l30.225,1.789c1.748,0.104,3.396,0.936,4.521,2.289
	l8.916,10.729c0.035,0.043,0.073,0.084,0.115,0.126c0.677,0.682,1.577,1.057,2.536,1.057c0.958,0,1.859-0.375,2.536-1.058
	l29.554-29.805l0.68-0.614l2.221-2.276C98.917,35.734,98.882,33.461,97.494,32.062"/>
<path fill="#613812" d="M7.192,75.286c-0.928,0-1.798,0.869-1.798,1.942v11.095c0,1.071,0.87,1.94,1.798,1.94
	c0.929,0,1.798-0.869,1.798-1.94V77.229C8.99,76.155,8.121,75.286,7.192,75.286"/>
<path fill="#613812" d="M12.588,69.738c-0.929,0-1.798,0.869-1.798,1.942v5.547c0,1.073,0.869,1.942,1.798,1.942
	c0.928,0,1.798-0.869,1.798-1.942v-5.547C14.386,70.607,13.516,69.738,12.588,69.738"/>
<path fill="#613812" d="M1.573,67.924C0.704,67.924,0,68.738,0,69.742v8.313c0,1.005,0.704,1.819,1.573,1.819
	s1.573-0.814,1.573-1.819v-8.313C3.146,68.738,2.442,67.924,1.573,67.924"/>
</svg>
