<?xml version="1.0" encoding="utf-8"?>
<!-- Generator: Adobe Illustrator 12.0.0, SVG Export Plug-In . SVG Version: 6.00 Build 51448)  -->
<!DOCTYPE svg PUBLIC "-//W3C//DTD SVG 1.1//EN" "http://www.w3.org/Graphics/SVG/1.1/DTD/svg11.dtd" [
	<!ENTITY ns_svg "http://www.w3.org/2000/svg">
	<!ENTITY ns_xlink "http://www.w3.org/1999/xlink">
]>
<svg  version="1.1" id="Layer_1" xmlns="&ns_svg;" xmlns:xlink="&ns_xlink;" width="56.742" height="27" viewBox="0 0 56.742 27"
	 overflow="visible" enable-background="new 0 0 56.742 27" xml:space="preserve">
<path fill="#593513" d="M8.916,1.938C8.894,1.95,8.87,1.962,8.84,1.981L8.815,2.009C8.817,2.01,8.82,2.01,8.826,2.021
	c0.017,0.001,0.032,0.003,0.048,0.005c0.064-0.037,0.064-0.037,0.104-0.029C8.888,2.052,8.888,2.052,8.867,2.09h0.002H8.87h0.001
	h0.001h0.001v0.003C8.838,2.137,8.832,2.141,8.797,2.166L8.762,2.185c-0.006,0-0.014-0.001-0.028-0.008L8.713,2.176L8.691,2.16
	l0.026-0.022l-0.358,0.15C8.355,2.311,8.355,2.311,8.309,2.385C8.404,2.337,8.404,2.337,8.45,2.341
	c0.036-0.024,0.074-0.048,0.092-0.072L8.538,2.234l0.039-0.019c0.007,0.001,0.015,0.001,0.025,0.006L8.601,2.256
	c0.008,0.001,0.015,0.002,0.031,0.018L8.603,2.296c-0.006,0.003-0.011,0.007-0.03,0.017C8.539,2.328,8.51,2.346,8.477,2.361
	C8.471,2.364,8.466,2.368,8.443,2.387C8.43,2.403,8.409,2.423,8.393,2.437C8.361,2.458,8.332,2.478,8.302,2.5
	C8.29,2.499,8.279,2.498,8.245,2.498c-0.02,0.01-0.05,0.021-0.071,0.027H8.172c-0.004,0-0.008,0-0.031-0.005
	C8.088,2.555,8.038,2.59,7.977,2.607C7.926,2.636,7.867,2.648,7.819,2.683C7.813,2.687,7.806,2.692,7.774,2.718
	C7.481,2.977,7.481,2.977,7.47,3.029C7.491,3.021,7.521,3.01,7.542,3.002c0.005,0,0.009,0.001,0.007,0.018
	C7.532,3.034,7.51,3.052,7.491,3.064c-0.005,0-0.009-0.001-0.035,0.006c-0.203,0.15-0.203,0.15-0.22,0.196
	c0.058-0.012,0.1-0.067,0.164-0.062C7.361,3.237,7.323,3.27,7.279,3.307C7.092,3.424,6.955,3.509,6.771,3.94l0.024,0.028
	c-0.003,0.02-0.004,0.049-0.002,0.069C6.8,4.038,6.806,4.038,6.838,4.027C6.85,4.025,6.862,4.023,6.873,4.021
	c0.003,0,0.006,0,0.029,0.023c-0.014,0.017-0.03,0.042-0.04,0.061c0.013,0.017,0.032,0.04,0.045,0.055
	C6.896,4.177,6.89,4.207,6.893,4.226c0.029,0.002,0.118,0.006,0.189-0.079C7.092,4.138,7.1,4.128,7.121,4.103
	c0.399-0.453,0.462-0.46,0.495-0.464c0.006,0,0.011,0.001,0.027,0C7.746,3.63,7.81,3.547,7.894,3.504
	C7.936,3.46,7.978,3.417,8.027,3.371c0.08-0.044,0.08-0.044,0.362-0.27c0.035,0.002,0.069,0.004,0.113-0.002
	C8.551,3.051,8.557,3.046,8.59,3.017c0.02,0.002,0.039,0.003,0.048,0.014C8.582,3.081,8.582,3.081,8.57,3.12
	c0.1,0.018,0.159-0.065,0.24-0.096c0.006,0,0.011,0.001,0.033,0.003c0.063-0.008,0.063-0.008,0.098-0.039
	c0.064-0.045,0.137-0.073,0.204-0.113c0.035-0.01,0.035-0.01,0.127-0.073l0.052-0.015C9.333,2.78,9.341,2.772,9.362,2.756
	c0.101-0.049,0.101-0.049,0.16-0.107l0.004-0.003c0.002,0,0.004,0,0.019,0.003v0.004l0.004,0.002l0.002,0.002L9.55,2.666
	l0.002,0.002L9.549,2.681c0.013,0.01,0.033,0.014,0.052,0.016l0.012,0.034c0.283,0.014,0.49-0.189,0.743-0.261
	c0.031,0.002,0.061,0.004,0.118-0.002c0.096-0.042,0.096-0.042,0.131-0.074l-0.007-0.012c-0.021,0.01-0.047,0.021-0.066,0.03
	l-0.06,0.025c-0.003,0-0.006,0-0.032-0.023c0.001-0.012,0.001-0.027,0.002-0.039c-0.005,0-0.011,0-0.045-0.003
	c-0.01-0.004-0.026-0.009-0.037-0.014l-0.009-0.034l0.023-0.027c0.016-0.014,0.031-0.027,0.08-0.045l0.012,0.001
	c0.062,0.003,0.118-0.027,0.182-0.025c-0.066,0.07-0.066,0.07-0.077,0.087l0.018,0.029l0.033-0.014
	c0.082-0.067,0.301-0.058,0.248-0.197c0.078-0.125,0.078-0.125,0.078-0.154c0.011,0.001,0.025,0.001,0.037,0.002v0.037
	c0.003,0,0.009,0.001,0.039-0.002c0.033-0.017,0.033-0.017,0.093-0.069c0.007-0.006,0.015-0.013,0.039-0.031
	c0.02-0.012,0.038-0.035,0.046-0.055c-0.036-0.006-0.036-0.006-0.104,0.018c-0.018-0.001-0.035-0.001-0.051-0.002
	c0.011-0.006,0.011-0.006,0.1-0.043c0-0.011-0.001-0.025-0.001-0.036l0.028-0.013c0.02,0.001,0.039,0.002,0.059,0.003
	c-0.02,0.016-0.039,0.031-0.059,0.047c0.018,0.002,0.037,0.002,0.073,0.001c0.02-0.011,0.047-0.02,0.067-0.021
	c0.007,0,0.012,0,0.031,0.019c0.12-0.022,0.124-0.063,0.126-0.106c-0.021,0.005-0.05,0.01-0.071,0.011
	c0.003-0.006,0.003-0.006,0.153-0.042c0.018-0.006,0.041-0.011,0.059-0.015c0.006,0,0.015,0,0.028,0.001
	c0.019-0.001,0.046-0.013,0.06-0.027l-0.015-0.033c0.027-0.039,0.027-0.039,0.109-0.095c0.019-0.006,0.045-0.007,0.064-0.007
	c0.018-0.015,0.039-0.03,0.078-0.069c0.015-0.015,0.034-0.036,0.051-0.051c-0.01-0.001-0.023-0.003-0.035-0.004
	c0.001-0.011,0.001-0.024,0.001-0.035l0.029-0.02l0.016-0.009c0.04-0.014,0.048-0.016,0.104-0.022
	c0.007,0.001,0.015,0.001,0.025,0.03l-0.01,0.007c-0.081,0.042-0.081,0.042-0.125,0.087l0.024-0.006
	c0.053-0.038,0.105-0.075,0.184-0.122c0.011-0.004,0.025-0.01,0.035-0.014c0.003-0.003,0.007-0.005,0.016-0.037
	c-0.012,0.002-0.025,0.004-0.036,0.005c-0.007,0-0.012,0-0.035-0.004c0.022-0.014,0.045-0.026,0.081-0.034h0.024
	c0.021-0.006,0.046-0.021,0.062-0.035c-0.033-0.012-0.033-0.012-0.139,0.009c0.047-0.027,0.06-0.033,0.099-0.05
	c0.011-0.003,0.011-0.003,0.174-0.076l0.025,0.001c0.062-0.028,0.062-0.028,0.107-0.037c0.003,0,0.005,0,0.035-0.008
	c0,0,0.104-0.047,0.376-0.112l0.021-0.01c-0.02-0.001-0.038-0.002-0.06-0.003l-0.001-0.006c0.022-0.003,0.051-0.006,0.073-0.004
	c0.003,0,0.006,0,0.02-0.002c0.046-0.008,0.09-0.025,0.139-0.034c0.002,0.001,0.004,0.001,0.024,0.001
	c0.048-0.008,0.048-0.008,0.106-0.03l0.022-0.019c-0.011,0-0.024-0.001-0.037-0.001l-0.017-0.005h-0.001h-0.001h-0.001
	c0,0,0,0-0.033,0.006c0,0-0.167,0.027-0.244,0.036h-0.001h-0.001h-0.001h-0.001h-0.001c0,0,0,0-0.028,0.004
	c-0.061,0.011-0.12,0.027-0.181,0.039c0.07-0.022,0.143-0.035,0.214-0.053c0.018-0.005,0.034-0.01,0.059-0.016
	c0.076-0.015,0.1-0.022,0.14-0.035H13.23c-0.087,0.004-0.17,0.026-0.256,0.035c0.066-0.015,0.066-0.015,0.104-0.022
	c0.001,0,0.002,0,0.019,0.001l0.035-0.006l0.01-0.009c-0.012,0.001-0.027,0.002-0.038,0.003c-0.01-0.001-0.021-0.001-0.055-0.003
	c-0.021,0.003-0.049,0.007-0.069,0.009l0,0h-0.002c0,0-0.001,0-0.024,0.002l0,0h-0.002c0,0,0,0-0.012,0.002
	c-0.012,0.001-0.026,0.003-0.037,0.003c0.022-0.004,0.103-0.021,0.183-0.03c0.021,0.002,0.043,0.003,0.08,0.002l0.037-0.005
	c0.019,0.001,0.036,0.001,0.08,0.001c0.039-0.007,0.039-0.007,0.106-0.012c0.017-0.004,0.035-0.007,0.052-0.011l-0.022,0.001
	c0,0-0.001,0,0.02-0.011c0.01-0.002,0.024-0.005,0.035-0.007c0,0-0.001,0-0.024,0.003c-0.006,0-0.01-0.001,0.009-0.008l-0.016-0.001
	h-0.003h-0.011h-0.012l-0.033,0.003L13.36,0.723l0.034-0.004c0.001,0,0.003,0,0.032-0.002c0.012-0.001,0.024-0.003,0.034-0.004
	c0.024,0.001,0.049,0.003,0.074,0.004c0.021-0.003,0.049-0.007,0.07-0.011l-0.004-0.004l0.007-0.003
	c-0.011,0-0.025-0.001-0.036-0.002c-0.027,0.001-0.052,0.003-0.078,0.005l0.004-0.001L13.491,0.7
	c-0.062,0.005-0.123,0.013-0.185,0.016c-0.004-0.001-0.008-0.001,0.019-0.005c0.013-0.001,0.026-0.003,0.037-0.005
	c-0.021,0.002-0.051,0.003-0.072,0.005c0,0-0.001,0-0.015-0.002h-0.009l-0.014,0.001c-0.021,0.001-0.051,0.004-0.072,0.006
	l-0.017,0.002l-0.008,0.001c0,0,0,0-0.018,0.003l-0.018,0.001l-0.016,0.002c-0.034,0.004-0.067,0.008-0.1,0.012l0.011-0.002
	l0.018-0.002l0.017-0.002H13.05h0.003l0.003-0.001l0.01-0.002h-0.001l0.013-0.001l0.003-0.001l0.004-0.001h-0.007l-0.016,0.001
	l-0.019,0.002l-0.052,0.006l-0.017,0.002l-0.046,0.007l-0.003,0.001l-0.009,0.002h0.001l0.004,0.001l-0.004,0.001l-0.011,0.001
	l-0.034,0.006l-0.048,0.007l-0.02,0.003l-0.018,0.003L12.771,0.77l-0.059,0.009l0.009-0.003l0.006-0.002c0,0-0.001,0,0.018-0.004
	l0.008-0.001l0.001-0.001l0.02-0.004c0.01-0.003,0.026-0.006,0.037-0.008l0.004-0.001l0.016-0.003l0.008-0.001l0.018-0.003
	l0.01-0.001l0.038-0.006h-0.002l0.007-0.001h0.005l0.007-0.001l-0.006-0.001l0.025-0.006c-0.011,0.001-0.025,0.002-0.036,0.002
	c-0.024,0.004-0.058,0.008-0.082,0.011l0.002,0.001l-0.008,0.001l-0.047,0.007l-0.013,0.002l-0.021,0.003
	c-0.016,0.002-0.036,0.005-0.052,0.008l-0.019,0.002c-0.017,0.003-0.04,0.007-0.057,0.009L12.58,0.782h-0.004l0.002-0.001
	l0.004-0.001l0.017-0.003l0.012-0.003l0.016-0.002l0.01-0.001l0.015-0.003l0.017-0.003l0.048-0.007l0.007-0.002l0.012-0.001
	l0.038-0.006l0.004-0.001l0.008-0.001l0.014-0.003l0.022-0.003l0.019-0.001l0.016-0.003l0.001-0.001H12.85
	c-0.01,0.001-0.021,0.002-0.066,0.007c-0.038,0.005-0.076,0.011-0.115,0.016l-0.023,0.003l-0.021,0.002l-0.019,0.004
	c-0.034,0.004-0.068,0.009-0.102,0.013l-0.024,0.003h-0.012l0.033-0.005c0.008-0.001,0.014-0.002,0.026-0.004
	c0.011-0.001,0.024-0.003,0.036-0.005c0.02-0.002,0.047-0.006,0.067-0.008l0.02-0.002l0.019-0.003l0.02-0.002l0.017-0.003
	l0.029-0.003l0.018-0.003l0.019-0.002c0.018-0.002,0.04-0.004,0.057-0.007l0.014-0.001l0.018-0.003l0.013-0.001l0.016-0.002
	L12.863,0.73l-0.038,0.003l-0.021,0.002l-0.011,0.001l-0.011,0.001H12.78l-0.01,0.001l-0.01,0.002l-0.025,0.001l0.003-0.001h-0.006
	h-0.005l-0.012,0.001l-0.024,0.002l-0.007-0.001l-0.008,0.001H12.67l-0.02,0.002l-0.02,0.003L12.61,0.75h-0.003l-0.003,0.001v0.001
	l-0.007,0.001l-0.014,0.002l-0.019,0.002L12.547,0.76l-0.02,0.002l-0.023,0.004L12.482,0.77h0.003h0.001l-0.009,0.001l-0.034,0.006
	l-0.008,0.002L12.4,0.784l-0.02,0.003h-0.008l0.009-0.002l0.003-0.001l0.02-0.004l0.018-0.002l0.015-0.003l0.012-0.002l0.015-0.003
	l0.005-0.001h-0.001l0.032-0.006l0.03-0.005l0.02-0.002l0.019-0.002l0.021-0.003l0.013-0.002l-0.02,0.001L12.57,0.751l-0.012,0.001
	l-0.018,0.002l-0.006,0.001l-0.039,0.004c-0.028,0.002-0.059,0.006-0.087,0.01l-0.019,0.003L12.37,0.774L12.35,0.778
	c-0.056,0.007-0.109,0.015-0.163,0.024l0.004-0.004l0.013-0.002l0.021-0.004L12.219,0.79c-0.018,0.002-0.04,0.005-0.059,0.007
	c-0.036,0.005-0.072,0.008-0.106,0.014c-0.021,0.002-0.047,0.006-0.066,0.009l-0.017,0.002h-0.012l-0.005,0.001h-0.001l-0.018,0.002
	l-0.017,0.002L11.902,0.83h-0.006l-0.027,0.004l-0.016,0.003h-0.001l-0.006,0.001c-0.022,0.003-0.053,0.007-0.075,0.011
	l-0.021,0.004c-0.021,0.003-0.048,0.008-0.068,0.011c0,0,0.002,0-0.014,0.005l-0.014,0.003l-0.02,0.004c0,0,0.001,0,0.027-0.001
	l0.006-0.001l0.027-0.004c-0.035,0.007-0.072,0.015-0.108,0.021l-0.02,0.004L11.55,0.899l-0.021,0.005
	c-0.03,0.006-0.061,0.013-0.121,0.024c-0.021,0.005-0.05,0.011-0.072,0.015l-0.021,0.004L11.292,0.95l-0.001-0.001L11.29,0.948
	l-0.033,0.006L11.23,0.958l0.002-0.006L11.24,0.95l-0.035,0.004l-0.028,0.007c-0.01,0.002-0.018,0.003-0.034,0.007
	c-0.012,0.002-0.025,0.005-0.036,0.007l-0.011,0.003c-0.003-0.001-0.005-0.001-0.034,0.004l-0.038,0.002l-0.011,0.002h-0.007
	l-0.011,0.003l-0.021,0.005l-0.021,0.004l-0.021,0.005l-0.021,0.005L10.899,1.01l-0.006-0.001c-0.092,0.021-0.183,0.05-0.273,0.075
	l0.014,0.003L10.6,1.098L10.597,1.1l-0.035,0.014l0.005,0.001l0.031-0.006l0.011-0.003c0.003,0,0.007,0.001,0.037-0.003l0.001,0.001
	h0.003c-0.027,0.008-0.053,0.015-0.086,0.025c-0.012,0.002-0.026,0.006-0.036,0.009l-0.012,0.003
	c-0.02,0.004-0.044,0.01-0.063,0.014h-0.001H10.45l0.008-0.003h-0.003l0.013-0.005l0.004-0.001l-0.004-0.001V1.144l-0.011,0.002
	l-0.03,0.006h-0.002l0.014-0.009h-0.003c-0.018,0.004-0.039,0.01-0.058,0.015L10.37,1.157c-0.04,0.009-0.049,0.012-0.094,0.028
	l-0.018,0.006c-0.017,0.008-0.017,0.008-0.08,0.035L10.161,1.23l-0.018,0.005l-0.021,0.006l-0.018,0.006l-0.015,0.007l-0.019,0.007
	l-0.017,0.007l-0.02,0.006l-0.009,0.003l-0.006,0.004l-0.008,0.003L9.989,1.295L9.983,1.299L9.966,1.305L9.955,1.313h0.001
	l0.002,0.001l0.017-0.005l0.019-0.007c0.021-0.008,0.052-0.02,0.075-0.026l-0.001,0.009l-0.006,0.004L10.059,1.29l-0.008,0.004
	l0.007-0.002c0.013-0.004,0.024-0.009,0.039-0.012l0.009,0.001l-0.013,0.005l0.001,0.006l0.021-0.006l0.011-0.003l0.014-0.003
	l0.007-0.001h0.001h0.001l0.007-0.002l0.021-0.006l0.032-0.007l-0.03,0.014l-0.006,0.004l0.01,0.003h0.002L10.157,1.3l-0.017,0.006
	L10.135,1.31l-0.002,0.002l0.018,0.002l-0.001,0.001L10.122,1.33l-0.006,0.008h0.003h0.003L10.074,1.36l-0.009,0.007v0.004
	l-0.04,0.019C9.984,1.406,9.942,1.422,9.9,1.438L9.867,1.453L9.853,1.461L9.838,1.469L9.835,1.471l0.006,0.001l-0.01,0.005
	L9.827,1.482l-0.01,0.006C9.804,1.495,9.783,1.503,9.769,1.51L9.751,1.518C9.74,1.525,9.724,1.534,9.71,1.54L9.697,1.548
	L9.676,1.559L9.659,1.567C9.636,1.582,9.611,1.593,9.586,1.605C9.565,1.615,9.538,1.629,9.519,1.64L9.511,1.646L9.472,1.67
	C9.468,1.672,9.465,1.674,9.437,1.686C9.402,1.7,9.402,1.7,9.336,1.738c-0.029,0.014-0.06,0.029-0.111,0.053
	C9.202,1.8,9.176,1.813,9.155,1.823l0.021,0.002C9.152,1.837,9.129,1.849,9.097,1.86L9.064,1.871C9.02,1.893,8.979,1.918,8.934,1.94
	L8.916,1.938z"/>
<path fill="#593513" d="M8.965,25.47c-0.002,0-0.22-0.09-0.333-0.14c-0.014-0.005-0.025-0.011-0.063-0.027
	c-0.221-0.101-0.221-0.101-0.27-0.125c-0.013-0.006-0.024-0.012-0.075-0.036c-0.04-0.021-0.079-0.039-0.15-0.076
	c-0.016-0.008-0.036-0.02-0.053-0.027c0.008,0.001,0.017,0.002-0.026-0.023c-0.185-0.096-0.415-0.255-0.431-0.266
	c-0.021-0.014-0.046-0.028-0.069-0.042c-0.015-0.005-0.039-0.014-0.054-0.019c-0.091-0.052-0.185-0.098-0.271-0.152
	c-0.013-0.007-0.023-0.014-0.045-0.027c-0.026-0.021-0.063-0.05-0.089-0.073c0.013,0.002,0.026,0.003,0.039,0.005
	c-0.062-0.041-0.124-0.083-0.192-0.131c-0.093-0.075-0.178-0.16-0.271-0.234c-0.01-0.007-0.021-0.015-0.072-0.048H6.538
	l-0.001-0.001H6.536c0,0-0.001,0,0.022,0.032c-0.043-0.023-0.043-0.023-0.195-0.135c-0.032-0.026-0.063-0.05-0.096-0.076
	c0.004,0,0.009,0.001,0.063,0.027c0.018,0.01,0.038,0.024,0.056,0.035c0.017,0.001,0.035,0.004,0.038-0.009
	c-0.016-0.011-0.034-0.025-0.05-0.036c-0.011-0.008-0.021-0.016-0.068-0.056c-0.042-0.044-0.042-0.044-0.185-0.155
	c-0.023-0.019-0.047-0.039-0.07-0.059c0.015,0.002,0.03,0.003,0.049-0.001c0.007,0.001,0.013,0.001,0.032-0.019
	c0.017,0.001,0.032,0.003,0.089,0.011c-0.07-0.068-0.117-0.155-0.175-0.231l-0.041-0.05c-0.029-0.028-0.059-0.055-0.087-0.084
	c-0.005,0-0.009,0-0.031-0.009c-0.02-0.018-0.036-0.036-0.094-0.092c-0.081-0.063-0.175-0.113-0.25-0.185
	c0.016,0.002,0.032,0.003,0.053,0.005c0.202,0.094,0.202,0.094,0.248,0.028c-0.31-0.457-0.315-0.525-0.317-0.566
	c0.041,0.041,0.072,0.092,0.122,0.126c-0.118-0.41-0.531-0.704-0.458-1.187c0.032,0.002,0.067,0.004,0.107,0.006
	c0.011-0.033,0.018-0.081,0.017-0.116c0.087,0.006,0.176,0.011,0.266,0.018c-0.014-0.033-0.028-0.08-0.034-0.116l0.018-0.006
	c-0.016-0.171-0.016-0.171-0.031-0.227c0.011-0.014,0.023-0.033,0.034-0.047c-0.058-0.134-0.062-0.143-0.074-0.243l0.021-0.022
	c-0.019-0.105-0.071-0.197-0.104-0.297c-0.005-0.012-0.01-0.023-0.018-0.071c-0.011-0.117-0.034-0.186-0.055-0.239
	c-0.008-0.018-0.015-0.035-0.04-0.089c-0.01-0.017-0.021-0.039-0.029-0.056c-0.011-0.027-0.021-0.055-0.051-0.117
	c-0.028-0.074-0.057-0.148-0.079-0.224c0.006-0.002,0.006-0.002,0.108-0.303c0.017-0.006,0.038-0.013,0.055-0.019
	c0.007-0.018,0.014-0.041,0.019-0.059c0,0,0.056-0.244,0.076-0.37c0.018-0.106,0.018-0.106-0.007-0.209
	c-0.015-0.043-0.136-0.419-0.297-0.509c-0.047-0.003-0.093-0.005-0.14-0.008c-0.2-0.098-0.257-0.504-0.541-0.377
	c-0.055-0.004-0.109-0.007-0.21-0.029c-0.081-0.086-0.092-0.098-0.205-0.086c0.009,0.035,0.018,0.083,0.022,0.119
	c-0.146-0.034-0.154-0.061-0.155-0.135c0.015-0.012,0.031-0.029,0.045-0.04c-0.24-0.22-0.288-0.231-0.338-0.243
	c-0.008,0-0.016-0.001-0.046-0.019c-0.08-0.062-0.08-0.062-0.157-0.057c0.015,0.064,0.029,0.129,0.043,0.193
	c-0.031-0.003-0.064-0.005-0.096-0.008c-0.007-0.025-0.012-0.053-0.02-0.085c0.001-0.035,0.01-0.081,0.02-0.114
	c0.006-0.011,0.014-0.025,0.02-0.036c-0.024-0.06-0.024-0.06-0.174-0.147l-0.024-0.001c-0.006-0.001-0.014-0.001-0.048,0.006
	c0.027,0.121,0.027,0.121,0.006,0.177c-0.018-0.003-0.04-0.007-0.058-0.01c-0.006-0.028-0.014-0.055-0.02-0.106
	c0.018-0.031,0.047-0.069,0.073-0.094c-0.036-0.274-0.037-0.277-0.078-0.351c-0.018-0.002-0.04-0.006-0.059-0.007
	c-0.013-0.075-0.027-0.151-0.051-0.251c-0.061-0.195-0.214-0.329-0.321-0.495c-0.033-0.007-0.074-0.031-0.099-0.056
	c-0.011-0.013-0.026-0.027-0.038-0.039c-0.033,0.009-0.078,0.023-0.11,0.036c-0.01,0-0.021-0.001-0.034-0.003
	c0,0-0.32-0.448-0.393-0.565c-0.001-0.014-0.002-0.029-0.045-0.079c-0.028-0.069-0.028-0.069-0.036-0.175
	c-0.006-0.001-0.012-0.001-0.028,0.005c-0.013,0.011-0.03,0.027-0.043,0.039c-0.046-0.042-0.046-0.042-0.059-0.165
	c0.009-0.017,0.019-0.039,0.027-0.057c-0.019-0.028-0.047-0.064-0.072-0.087l-0.028,0.071c-0.003,0-0.006-0.001-0.018-0.015
	c-0.016-0.007-0.038-0.015-0.055-0.022c0,0.037-0.002,0.085-0.003,0.122c-0.014,0.011-0.032,0.026-0.046,0.037
	c-0.029-0.109-0.029-0.109-0.08-0.156c-0.022-0.002-0.043-0.005-0.068-0.015c-0.013-0.013-0.028-0.03-0.041-0.043
	c-0.003-0.043-0.006-0.087-0.051-0.166c-0.01-0.031-0.039-0.07-0.067-0.088c0,0.004,0.001,0.455-0.019,0.587
	c-0.087-0.397-0.048-0.582-0.028-0.681l-0.006-0.045c-0.007-0.001-0.014-0.002-0.027,0.002c-0.021,0.06-0.021,0.06-0.014,0.175
	c-0.017-0.002-0.032-0.005-0.058,0.036c-0.01,0.034-0.031,0.078-0.057,0.104c0.007,0.084,0.016,0.167,0.021,0.288
	c-0.017,0.049-0.023,0.096-0.03,0.144l-0.002-0.025l-0.026-0.134c-0.011-0.003-0.021-0.006-0.03-0.01L0.9,14.827l-0.021-0.031
	l-0.015-0.101l-0.023-0.212l-0.009-0.116c0.002,0.033,0.004,0.072,0.006,0.103v0.002v0.015l0.014,0.177l0.003,0.03l0.006,0.06
	l-0.004-0.031l-0.002-0.029l-0.001-0.015l0.003,0.044l-0.001-0.01l0.007,0.068c0.027,0.223,0.027,0.223,0.036,0.251L0.897,15.02
	l0.037,0.171l0.021,0.081L0.934,15.1l-0.005-0.105l0.03,0.031l0.011,0.069c-0.019,0.392,0.219,0.757,0.18,1.151
	c0.034,0.143,0.034,0.143,0.039,0.215c0.025,0.177,0.025,0.177,0.063,0.325c-0.006-0.002-0.009-0.004,0,0.043
	c0.077,0.287,0.077,0.287,0.11,0.348c0.008,0.027,0.017,0.054,0.029,0.097c0,0.001,0.017,0.155,0.131,0.459
	c0.005,0.013,0.01,0.027,0.027,0.073c0.092,0.268,0.228,0.517,0.338,0.777c0.012,0.029,0.022,0.057,0.049,0.112
	c0.179,0.365,0.596,1.22,0.984,1.514c0.071,0.124,0.146,0.246,0.233,0.385c0.02,0.032,0.046,0.074,0.066,0.104l0.009,0.017
	c0.008,0.012,0.015,0.023,0.046,0.066c0.01,0.016,0.025,0.037,0.036,0.053c0.003,0.006,0.008,0.012,0.019,0.029
	c0.063,0.102,0.063,0.102,0.096,0.148l0.005,0.01c0.011,0.013,0.02,0.026,0.058,0.076c0.009,0.015,0.024,0.034,0.034,0.049
	l0.013,0.018c0.008,0.011,0.017,0.022,0.023,0.034c0.037,0.059,0.047,0.075,0.116,0.156c0.007,0.012,0.016,0.022,0.023,0.033
	c0.008,0.012,0.017,0.022,0.032,0.046c0.08,0.111,0.154,0.228,0.24,0.334c0.003,0.004,0.282,0.358,0.368,0.462
	c0.006,0.006,0.011,0.012,0.023,0.028c0.229,0.245,0.472,0.476,0.694,0.726c0.02,0.019,0.04,0.038,0.098,0.091
	c0.016,0.013,0.032,0.031,0.046,0.044c0.725,0.635,0.725,0.635,0.853,0.727c0.146,0.106,0.281,0.224,0.435,0.319L6.5,24.167
	l-0.296-0.215l0.018,0.003c0.033,0.024,0.064,0.048,0.126,0.094c0.014,0.011,0.032,0.025,0.045,0.036
	c0.058,0.042,0.118,0.083,0.191,0.135c0.06,0.045,0.06,0.045,0.353,0.236c-0.035-0.021-0.081-0.048-0.116-0.069
	c-0.011-0.007-0.022-0.015-0.051-0.034c-0.016-0.01-0.036-0.023-0.052-0.034l0.011,0.011c0.034,0.022,0.068,0.044,0.111,0.07
	c0.083,0.051,0.165,0.101,0.248,0.152C7.04,24.527,6.994,24.5,6.947,24.473c0.035,0.022,0.069,0.043,0.122,0.079
	c0.168,0.107,0.346,0.199,0.519,0.299c0.006,0.004,0.012,0.007,0.051,0.027c0.051,0.028,0.104,0.054,0.157,0.081
	c0.005,0.003,0.012,0.007,0.034,0.02c0.114,0.061,0.239,0.121,0.331,0.164l0.032,0.017l0.042,0.019l0.012,0.003
	c0.126,0.059,0.126,0.059,0.162,0.074l0.028,0.014c0.253,0.114,0.544,0.224,0.561,0.229c0.014,0.005,0.025,0.011,0.038,0.015
	C9.1,25.538,9.1,25.538,9.205,25.573c0,0,0.004,0,0.052,0.016l0.029,0.002c-0.17-0.069-0.17-0.069-0.217-0.081
	C9.041,25.498,9.014,25.487,8.965,25.47"/>
<path fill="#593513" d="M19.581,19.894c-0.039,0.137-0.04,0.139-0.046,0.146c-0.026,0.032-0.026,0.032-0.224,0.16
	c-0.016,0.01-0.067,0.103-0.069,0.114c-0.004,0.029-0.007,0.039-0.015,0.047c-0.02,0.023-0.05-0.006-0.071,0.013
	c-0.037,0.036-0.037,0.096-0.078,0.128c-0.109,0.082-0.236-0.012-0.347,0.036c-0.033,0.013-0.073,0.01-0.098,0.041
	c-0.034,0.041-0.021,0.096-0.045,0.14c-0.026,0.045-0.08,0.067-0.104,0.115c-0.001,0.002-0.077,0.221-0.053,0.251
	c0.022,0.027,0.021,0.033,0.018,0.049c0,0.001-0.03,0.105-0.04,0.118c-0.015,0.02-0.024,0.016-0.047,0.007
	c-0.014-0.005-0.014-0.005-0.111,0.099c-0.054,0.056-0.037,0.15-0.109,0.196c-0.023,0.015-0.025,0.017-0.035,0.031
	c-0.004,0.011-0.009,0.021-0.013,0.033c-0.015,0.052,0.002,0.107-0.014,0.161c-0.008,0.021-0.016,0.042-0.023,0.064
	c-0.028,0.107-0.028,0.107-0.057,0.18c0.062,0.006,0.126-0.001,0.189,0.005c0.001,0.016-0.004,0.032-0.004,0.049
	c0.07,0.025,0.254,0.07,0.417-0.101c0.086-0.09,0.093-0.219,0.161-0.318c0.043-0.063,0.12-0.089,0.162-0.151
	c0.06-0.086,0.057-0.2,0.122-0.284c0.042-0.052,0.113-0.047,0.163-0.08c0.027-0.017,0.067-0.014,0.088-0.047
	c0.042-0.068,0-0.154,0.048-0.222c0.033-0.045,0.082-0.077,0.105-0.129c0.01-0.023,0.019-0.046,0.026-0.069
	c0.006-0.023,0.005-0.047,0.009-0.07c0.006-0.012,0.011-0.022,0.014-0.035c0.029-0.053,0.096-0.068,0.126-0.121
	c0.003-0.012,0.008-0.023,0.012-0.036l0.101-0.392C19.737,20.002,19.718,19.946,19.581,19.894"/>
<path fill="#593513" d="M20.029,15.424c-0.026-0.001-0.052-0.001-0.139,0.004c-0.194,0.032-0.26,0.017-0.367-0.033
	c-0.086-0.19-0.086-0.19-0.086-0.269c-0.021-0.011-0.05-0.025-0.069-0.036c-0.019-0.055-0.036-0.131-0.036-0.188
	c-0.595-0.49-1.107-0.914-0.988-1.357c0.001-0.03,0.001-0.059,0.002-0.158c-0.007-0.047-0.021-0.111-0.046-0.152
	c-0.011-0.017-0.988-1.854-0.997-2.173c-0.098-0.08-0.231-0.092-0.328-0.174c-0.014,0-0.026,0-0.096,0.008
	c-0.042,0.021-0.1,0.05-0.144,0.071c-0.014,0-0.027-0.001-0.04-0.001c-0.581-0.126-1.108-0.457-1.727-0.441
	c-0.013,0.461-0.013,0.461-0.048,0.512c-0.023,0.003-0.055,0.007-0.077,0.01c-0.025-0.001-0.051-0.002-0.114-0.002
	c-0.133-0.025-0.185-0.176-0.317-0.199c-0.134-0.004-0.268-0.007-0.429-0.074c-0.069-0.272-0.485-0.284-0.49-0.284
	c-0.203-0.001-0.203-0.001-0.444-0.764c0.039-0.036,0.039-0.036,0.195-0.092c-0.007-0.022-0.015-0.054-0.022-0.077
	c-0.076-0.019-0.146-0.06-0.223-0.083c-0.551,0.028-0.551,0.028-0.804,0.168c-0.149-0.126-0.398-0.338-0.67-0.036
	c-0.129-0.004-0.258-0.009-0.385-0.013c-0.016,0.027-0.016,0.027-0.471,0.245c-0.012,0-0.024,0-0.054-0.002
	c-0.154-0.044-0.336,0.021-0.466-0.118c-0.029-0.004-0.068-0.009-0.099-0.013c-0.061,0.096-0.09,0.289-0.09,0.291
	c-0.074,0.048-0.095,0.064-0.289,0.039c-0.015,0.112-0.028,0.225-0.042,0.339c-0.095-0.004-0.189-0.008-0.297,0.052
	c-0.045,0.179-0.104,0.354-0.133,0.537c-0.004,0.049-0.011,0.098-0.015,0.147c-0.077-0.003-0.153-0.006-0.229-0.01
	c-0.042,0.225-0.298,0.374-0.416,0.366c-0.145,0.269-0.365,0.496-0.449,0.801c-0.021-0.002-0.049-0.003-0.069-0.004
	c0,0-0.001,0-0.054,0.011c-0.023,0.001-0.057,0.004-0.083,0.005c-0.026,0.474-0.051,0.482-0.236,0.554
	c-0.009,0.021-0.02,0.049-0.028,0.07c-0.002,0.051-0.006,0.102,0.03,0.161c0.284,0.061,0.284,0.061,0.31,0.119
	c-0.093,0.176-0.093,0.176-0.101,0.709c0,0.029-0.001,0.059,0.001,0.156c-0.008,0.018-0.008,0.018-0.152,0.155
	c0.01,0.104,0.048,0.203,0.069,0.305v0.087c0.013,0.384,0.622,0.757,0.627,0.76c-0.005,0.227-0.008,0.391,0.491,0.51
	c0.022,0.084,0.022,0.084,0.02,0.223c0.438,0.404,0.696,0.357,0.698,0.357c0.02-0.045,0.046-0.105,0.063-0.15
	c0.098-0.013,0.196,0.025,0.293,0.002c0.018,0.001,0.032,0.002,0.104,0.003c0.077,0,0.154,0.007,0.229,0.01
	c0.063,0.156,0.199,0.129,0.529,0.066c0.083-0.207,0.164-0.197,0.507-0.154c0.013,0,0.026,0.001,0.038,0.001
	c0.214-0.18,0.4-0.107,0.451-0.082c0.07,0.351,0.138,0.367,0.283,0.401c0.233,0.008,0.47,0.016,0.706,0.023
	c-0.001,0.085-0.003,0.17-0.019,0.301c-0.001,0.006-0.085,0.622-0.149,0.765c-0.022,0-0.053,0.001-0.073,0.001
	c-0.01,0.021-0.023,0.05-0.032,0.072c0.542,0.302,0.557,0.934,0.864,1.383c-0.007,0.02-0.015,0.047-0.021,0.067
	c-0.001,0.024-0.001,0.05-0.002,0.075c0.013,0.147,0.024,0.152,0.108,0.19c-0.002,0.417-0.36,0.715-0.371,1.127
	c-0.005,0.225,0.015,0.237,0.146,0.315c0.021,0.212,0.026,0.275,0.207,0.382c0.067,0.306,0.067,0.306,0.108,0.354
	c-0.004,0.111-0.008,0.219-0.012,0.327c0.001,0.005,0.189,0.64,0.43,0.896c-0.013,0.083-0.017,0.104,0.054,0.214
	c-0.002,0.009-0.003,0.018-0.021,0.047c-0.036,0.023-0.078,0.065-0.1,0.103c0.017,0.012,0.038,0.03,0.056,0.042
	c0.019,0,0.039,0.001,0.057,0.002c-0.01,0.093-0.012,0.107,0.1,0.164c0.09,0.002,0.182,0.005,0.288,0.007
	c0.13-0.045,0.13-0.045,0.228-0.06c0.117,0.003,0.233,0.005,0.396-0.037c0.009-0.019,0.019-0.045,0.026-0.064
	c0.327-0.048,0.327-0.048,0.368-0.146c0.01-0.004,0.936-0.461,0.831-0.956c0-0.001,0.426-0.244,0.585-0.315
	c0.033-0.145,0.033-0.145-0.012-0.634c0.412-0.332,0.971-0.476,1.243-0.984c0.009-0.035,0.018-0.071,0.035-0.135
	c0.012-0.046,0.014-0.111,0.003-0.157c0.035-0.144,0.068-0.29,0.069-0.464c-0.156-0.238,0.045-0.493-0.035-0.735l0.007-0.038
	c0.427-1.415,2.277-1.695,2.564-3.221c0.006-0.056,0.01-0.112-0.05-0.185C20.457,15.246,20.287,15.522,20.029,15.424"/>
<path fill="#593513" d="M26.592,13.28c-0.003-0.088-0.006-0.177-0.009-0.264l0.006-0.004c0-0.037,0-0.075,0-0.112
	c0.003-0.028,0.003-0.028,0.003-0.029c-0.028-0.314-0.047-0.733-0.094-1.046c0.007,0.077,0.016,0.159,0.023,0.245
	c-0.002-0.025-0.005-0.05-0.008-0.075l-0.017-0.175c0-0.001,0-0.003,0-0.005c-0.067-0.393-0.155-0.92-0.245-1.309l-0.185-0.685
	c-0.429-1.249-0.44-1.277-0.724-1.864L25.34,7.952c0.002,0.002,0.002,0.004,0.004,0.006c-0.002-0.002-0.002-0.003-0.004-0.005
	c-0.577-1.089-0.667-1.256-0.998-1.716c-0.34-0.455-0.813-1.045-1.185-1.472L23.097,4.7c-0.941-0.922-0.941-0.922-1.466-1.33
	c-0.993-0.713-1.147-0.822-1.664-1.096l-0.726-0.37l0.017,0.008l-0.004-0.001c-0.054-0.023-0.106-0.052-0.162-0.073
	c0.028,0.014,0.059,0.027,0.087,0.042c-0.023-0.009-0.056-0.023-0.079-0.034c-0.027-0.015-0.044-0.025-0.144-0.069
	c-0.015-0.007-0.022-0.01-0.027-0.013l-0.029-0.012c0.063,0.034,0.131,0.062,0.195,0.093L19.094,1.85l0.018,0.009
	c0.029,0.014,0.059,0.027,0.088,0.04c0.014,0.007,0.021,0.01,0.027,0.013c0.016,0.009,0.039,0.02,0.056,0.028l0.007,0.006
	l0.022,0.016l0.002,0.006l0.014,0.011l-0.011-0.004c-0.002-0.001-0.223-0.12-0.305-0.159c-0.025-0.014-0.025-0.014-0.025-0.014
	c-0.02-0.01-0.045-0.023-0.064-0.032c-0.017-0.007-0.037-0.017-0.054-0.025V1.744c-0.032-0.017-0.042-0.022-0.174-0.078
	c-0.019-0.009-0.019-0.009-0.019-0.009c-0.039-0.018-0.079-0.033-0.118-0.05c-0.02-0.007-0.02-0.008-0.02-0.008
	c-0.073-0.03-0.13-0.051-0.202-0.078L18.332,1.52c-0.091-0.035-0.182-0.067-0.272-0.099c-0.019-0.006-0.019-0.004-0.021-0.003
	l-0.026-0.009c0.015,0.008,0.036,0.018,0.053,0.023c-0.02-0.007-0.045-0.015-0.064-0.022c0.026,0.014,0.066,0.027,0.106,0.041
	l-0.004,0.002l-0.031-0.011c-0.015-0.006-0.034-0.013-0.048-0.018c-0.039-0.016-0.08-0.03-0.12-0.043l-0.007,0.002
	c-0.022-0.005-0.053-0.011-0.171-0.059c-0.028-0.009-0.056-0.018-0.082-0.026l-0.019,0.004c0.353,0.134,0.353,0.134,0.42,0.159
	l-0.025,0.003c0.019,0.007,0.044,0.017,0.063,0.024l0.021,0.01h-0.001c0.021,0.009,0.034,0.014,0.047,0.019
	c0.016,0.007,0.039,0.017,0.056,0.025c-0.019-0.002-0.019-0.002-0.119-0.033c-0.013,0-0.014,0-0.015,0l-0.031-0.008
	c0.041,0.028,0.09,0.041,0.136,0.063l-0.009,0.01c0.027,0.018,0.055,0.033,0.08,0.051l-0.025-0.007
	c0.066,0.068,0.066,0.068,0.407,0.239c0.021,0.01,0.033,0.016,0.046,0.022L18.7,1.895L18.673,1.89l0.011,0.027
	c-0.018-0.001-0.041-0.001-0.06-0.001C18.612,1.93,18.6,1.93,18.588,1.931l0.017,0.019l0.023,0.017
	c-0.01,0.002-0.024,0.003-0.039,0.003c0.014,0.012,0.333,0.192,0.388,0.199h0.014c0.022,0.004,0.05,0.009,0.136,0.06
	c0.017,0.01,0.026,0.017,0.037,0.024l0.027,0.019c-0.015,0-0.015,0-0.253-0.096c-0.019,0-0.036,0.001-0.053,0.001
	c-0.027-0.009-0.063-0.026-0.088-0.039L18.77,2.128l-0.004,0.028l0.029,0.026c0.072,0.011,0.073,0.011,0.138,0.054
	c-0.007,0.001-0.007,0.001-0.086-0.019h-0.01c0.057,0.067,0.107,0.088,0.153,0.104l0.018,0.001h0.002h0.002h0.002h0.001h0.001h0.001
	h0.002c0.119,0.033,0.227,0.105,0.227,0.106C19.13,2.364,18.99,2.368,18.88,2.287c-0.023-0.016-0.045-0.029-0.064-0.043
	c-0.198-0.128-0.198-0.128-0.291-0.176h-0.019h-0.002h-0.001h-0.001h-0.001c0.18,0.111,0.18,0.111,0.197,0.123
	c0.015,0.01,0.027,0.018,0.039,0.026h-0.028c0.045,0.055,0.112,0.114,0.113,0.114l0.014,0.011c0.314,0.19,0.314,0.19,0.354,0.233
	l0.013,0.011c0.085,0.053,0.158,0.122,0.247,0.17c0.032,0.002,0.051,0.002,0.071,0.002c-0.011-0.014-0.026-0.032-0.036-0.047
	s-0.008-0.015-0.006-0.015c0.203,0.071,0.34,0.252,0.54,0.329c0.038,0.024,0.085,0.03,0.119,0.059
	c-0.019,0.019-0.021,0.019-0.026,0.019c-0.123-0.067-0.123-0.067-0.165-0.101c-0.014-0.013-0.029-0.025-0.044-0.036
	c-0.001-0.002-0.212-0.151-0.29-0.142l-0.017,0.023c0.038,0.059,0.355,0.361,0.357,0.364l-0.028,0.005
	c0.002,0.017,0.005,0.04,0.005,0.057c0.015,0.023,0.023,0.031,0.032,0.04l0.017,0.025c-0.042-0.001-0.042-0.001-0.115-0.032
	c-0.051-0.011-0.081-0.011-0.111-0.01l-0.028-0.014c-0.01-0.015-0.021-0.035-0.029-0.05c0.04-0.001,0.078,0.012,0.117,0.013
	c0.009-0.03,0.018-0.058-0.088-0.187c-0.003-0.018-0.003-0.018-0.5-0.403c-0.022-0.017-0.032-0.023-0.041-0.031
	c-0.161-0.138-0.17-0.146-0.397-0.275c-0.064-0.046-0.126-0.087-0.186-0.128c0.011-0.001,0.025-0.004,0.037-0.001l-0.185-0.12
	c-0.04-0.005-0.075-0.026-0.115-0.029l-0.021,0.001l-0.03-0.004l0.006,0.027l-0.027,0.006c0.056,0.061,0.269,0.24,0.271,0.242
	c-0.021,0.02-0.025,0.02-0.03,0.02l0.017,0.028c0.023,0.017,0.026,0.021,0.032,0.025l0.022,0.017
	c0.019,0.008,0.022,0.008,0.028,0.008c0.031,0.015,0.155,0.083,0.168,0.13c0.037,0.071,0.111,0.104,0.353,0.213
	c0.091,0.047,0.091,0.047,0.186,0.144c-0.019,0.001-0.023,0.001-0.028,0.001c-0.028,0-0.055,0-0.619-0.257
	c-0.04-0.006-0.064-0.006-0.09-0.006c-0.028-0.011-0.053-0.029-0.081-0.043c-0.035-0.002-0.061-0.002-0.088-0.002
	c-0.069-0.025-0.13-0.065-0.198-0.088c-0.027-0.013-0.054-0.033-0.085-0.04c-0.023-0.003-0.026-0.003-0.03-0.003v0.028
	c0.148,0.135,0.389,0.122,0.505,0.309c-0.021,0.021-0.025,0.021-0.031,0.021c0.002,0.029,0.02,0.054,0.024,0.082l-0.025-0.006
	c-0.113-0.121-0.113-0.121-0.129-0.134c-0.016-0.006-0.023-0.006-0.03-0.006l-0.009,0.028l0.016,0.027l-0.023,0.014h-0.02
	l-0.027-0.005c0.532,0.582,1.033,1.267,1.477,2.036c-0.443-0.77-0.944-1.454-1.496-2.037c0.001,0.012,0.003,0.028,0.005,0.039
	c-0.026,0.007-0.033,0.007-0.04,0.007C18.258,2.89,18.251,2.89,18.245,2.89c-0.013,0-0.026,0-0.041,0
	c0.005,0.024,0.022,0.045,0.04,0.065c-0.019,0-0.037-0.001-0.056-0.001c-0.058-0.029-0.058-0.029-0.167-0.164l-0.014,0.035
	c-0.011,0.002-0.025,0.005-0.037,0.007l-0.013,0.034c-0.024,0.017-0.034,0.017-0.043,0.017c-0.012-0.001-0.026-0.001-0.038-0.002
	c-0.003,0.013-0.007,0.028-0.011,0.042c-0.036,0.012-0.043,0.012-0.049,0.012c-0.05,0.015-0.052,0.016-0.069,0.081
	c-0.019,0.008-0.049,0.014-0.068,0.013l-0.024,0.028c0.079,0.069,0.079,0.069,0.083,0.075c-0.017,0.042-0.017,0.042-0.111,0.078
	c-0.012,0.004-0.016,0.004-0.019,0.004c-0.188-0.146-0.188-0.146-0.202-0.172c0.035-0.008,0.075-0.007,0.114-0.007
	c-0.019-0.024-0.036-0.05-0.054-0.075c-0.018-0.011-0.043-0.024-0.063-0.03c-0.035-0.031-0.035-0.031-0.091-0.07
	c-0.011,0.003-0.026,0.007-0.038,0.01h-0.01c-0.039-0.026-0.047-0.031-0.107-0.03c-0.014,0-0.028,0-0.043,0
	c-0.021,0.017-0.011,0.034-0.002,0.051c0.013,0.002,0.028,0.004,0.041,0.005c0.063,0.06,0.094,0.107,0.123,0.155
	c-0.009,0.043-0.011,0.05,0.054,0.099c0.022,0.009,0.022,0.009,0.101,0.063l0.012,0.018c0.007,0.047,0.039,0.082,0.056,0.125
	c-0.08-0.009-0.08-0.009-0.108-0.026l-0.016-0.025C17.371,3.3,17.371,3.3,17.206,3.295c-0.002,0.021-0.009,0.051-0.018,0.071
	c-0.09,0.027-0.09,0.027-0.105,0.083c-0.012,0.003-0.027,0.005-0.041,0.008h0.005c0.039,0.079,0.138,0.107,0.167,0.194l-0.002-0.003
	c-0.111-0.004-0.111-0.004-0.146-0.015c-0.016-0.001-0.023-0.001-0.032-0.001c-0.188-0.04-0.243-0.103-0.26-0.122
	c-0.013,0.016-0.037,0.035-0.058,0.043c0.003,0.033,0.003,0.074,0.085,0.095l0.017,0.033c0.026,0.02,0.034,0.02,0.042,0.02
	c0.063-0.011,0.08,0,0.141,0.048c0.001,0.011,0.002,0.027,0.003,0.038C16.962,3.79,16.92,3.79,16.877,3.789L16.86,3.822
	l-0.321-0.264c-0.025-0.001-0.052-0.001-0.078-0.002l-0.033-0.084c-0.052-0.2-0.312-0.178-0.383-0.358
	c0.085,0.021,0.373,0.146,0.374,0.147c0.083,0.009,0.138,0.011,0.19,0.012c0.059,0.014,0.112,0.045,0.174,0.053
	c0.034,0,0.042,0,0.05,0.001h0.023c0.435-0.147,0.002-0.363-0.003-0.364l-0.358-0.129c-0.02-0.017-0.053-0.033-0.08-0.041
	c-0.038-0.022-0.062-0.035-0.145-0.026c-0.04,0.006-0.043,0.006-0.047,0.005c-0.034-0.019-0.071-0.035-0.104-0.059
	c-0.034-0.011-0.056-0.013-0.077-0.013l0.018,0.034c-0.03,0.022-0.036,0.022-0.044,0.022l-0.034-0.019V2.701
	c-0.005-0.021-0.007-0.024-0.008-0.028c-0.039-0.019-0.049-0.022-0.079-0.073c-0.021,0-0.041-0.001-0.062-0.002l-0.021,0.031
	c-0.062-0.012-0.12-0.036-0.182-0.052c-0.02-0.013-0.022-0.021-0.025-0.028c0.01,0,0.024-0.001,0.036-0.002
	c0.006-0.012,0.011-0.029,0.016-0.043c-0.021-0.02-0.082-0.074-0.238-0.095c0.009,0.021,0.016,0.043,0.023,0.064
	c-0.012,0.002-0.027,0.003-0.039,0.004c-0.021-0.015-0.024-0.029-0.029-0.043l0.014-0.035c-0.001-0.012-0.003-0.018-0.007-0.024
	l-0.134-0.004c0.009,0.021,0.02,0.048,0.025,0.069c-0.002,0.026,0.001,0.033,0.003,0.04l-0.015,0.016
	c-0.007-0.062-0.009-0.064-0.046-0.095c-0.023-0.001-0.035-0.002-0.049-0.002l-0.017-0.053l-0.025-0.005L15.12,2.343
	c-0.028,0.023-0.064,0.031-0.097,0.047c-0.002,0.02-0.016,0.046-0.031,0.06h-0.015l-0.033-0.013
	c-0.003-0.011-0.005-0.025-0.007-0.035c-0.007-0.016-0.029-0.017-0.051-0.017c-0.059,0.01-0.066,0.016-0.104,0.039
	c0.012,0.06,0.012,0.06,0.111,0.076c0.008,0.017,0.011,0.033,0.015,0.049c-0.013,0-0.026-0.001-0.041-0.001
	c-0.02-0.011-0.02-0.011-0.106-0.023c-0.042-0.007-0.056-0.008-0.068-0.008c0.013,0.07,0.013,0.07-0.001,0.109
	c-0.011-0.02-0.025-0.047-0.036-0.067c-0.062-0.011-0.101-0.074-0.166-0.076c-0.009,0.015-0.008,0.029-0.006,0.043
	c0.053,0.122-0.016,0.14-0.046,0.148C14.424,2.657,14.41,2.63,14.402,2.61l-0.025,0.03c-0.01,0-0.024,0.001-0.035,0.001
	c-0.011,0.012-0.022,0.029-0.031,0.04c0.017,0.014,0.04,0.031,0.058,0.043c-0.001,0.023,0,0.031,0,0.038l-0.032,0.017
	c-0.004-0.004-0.004-0.004-0.099-0.037c0.004-0.022,0.006-0.054,0.006-0.077c-0.011-0.001-0.024-0.003-0.037-0.004
	c-0.003,0.023-0.003,0.046-0.003,0.069c-0.092,0.011-0.092,0.011-0.107,0.019l0.021,0.029l-0.024,0.028
	c-0.069-0.002-0.069-0.002-0.11,0.043l-0.022,0.005L13.93,2.9l-0.023-0.001l-0.023,0.029c0.014,0.001,0.028,0.001,0.043,0.001
	c0.076-0.048,0.076-0.048,0.133-0.043c0.083-0.074,0.172-0.061,0.219-0.052c0.003,0.012,0.008,0.029,0.012,0.041
	c-0.036-0.001-0.036-0.001-0.14,0.037c-0.014,0.045-0.049,0.08-0.049,0.129c-0.018,0.013-0.044,0.026-0.065,0.031
	c-0.039,0.077-0.13,0.126-0.131,0.127c-0.02,0.071-0.064,0.132-0.08,0.204L13.82,3.38c-0.031,0.02-0.057,0.036-0.202,0.1
	l-0.011,0.043c0.011,0.001,0.027,0.003,0.038,0.004c0.03-0.002,0.047-0.002,0.063-0.001c-0.039,0.148-0.206,0.148-0.285,0.249
	c-0.024,0.001-0.059-0.008-0.078-0.021c-0.027-0.002-0.044-0.002-0.061-0.003l-0.014,0.047c0.003,0.012,0.007,0.029,0.01,0.041
	c-0.018,0.014-0.047,0.025-0.068,0.031c-0.025,0.001-0.026,0.001-0.026,0.001h-0.002h-0.001h-0.002h-0.001h-0.002h-0.002h-0.001
	c-0.059,0.023-0.114,0.054-0.174,0.076c-0.019,0.105-0.13,0.095-0.188,0.149c0.004,0.021,0.003,0.051-0.004,0.071
	c-0.004,0.002-0.004,0.002-0.049,0.158c-0.014,0.006-0.023,0.006-0.032,0.005c-0.023,0.048-0.027,0.066-0.03,0.086
	c0.025,0.001,0.05,0.002,0.077,0.003c0.011-0.001,0.026-0.002,0.038-0.003l0.025,0.03c-0.011,0.019-0.032,0.041-0.052,0.051
	c-0.017,0.064-0.017,0.064-0.057,0.086c-0.002,0.012-0.003,0.027-0.005,0.039c0.027,0.018,0.027,0.018,0.117,0.026
	c-0.012,0.065-0.012,0.065-0.053,0.092c0.172,0.006,0.345,0.011,0.518,0.018c0.048-0.063,0.048-0.063,0.153-0.092
	c0.007-0.021,0.008-0.041,0.01-0.061c0.057,0.008,0.061,0.064,0.093,0.097c0,0.013,0,0.029,0,0.042
	c0.302,0.031,0.608,0.04,0.915,0.049c0.03-0.022,0.065-0.03,0.099-0.045c0.004-0.057,0.007-0.059,0.081-0.116
	c-0.001-0.039-0.002-0.049-0.003-0.06c-0.001-0.012-0.006-0.025-0.008-0.037c-0.049,0-0.096-0.011-0.147-0.007
	c0.002-0.076,0.002-0.076-0.017-0.115c-0.022-0.005-0.05-0.016-0.069-0.028c-0.003-0.108-0.004-0.186-0.007-0.261
	c0.004-0.002,0.004-0.002,0.113-0.19c0.167-0.039,0.286-0.195,0.286-0.196c0.037-0.024,0.037-0.024,0.104-0.03l0.025-0.03
	c-0.039-0.116,0.033-0.217,0.044-0.327c0.045-0.009,0.045-0.009,0.111,0.001h0.003h0.001h0.002H15.1h0.002h0.001h0.001h0.002
	c0.06,0.065,0.06,0.065,0.092,0.073l0.024-0.028c0.061,0.024,0.064,0.029,0.093,0.069c0.018,0.049,0.022,0.077,0.027,0.104
	c-0.025,0-0.051,0-0.075-0.002c0.021,0.114,0.021,0.114-0.333,0.4c0.006,0.099-0.005,0.199,0.017,0.299l0.002,0.028
	c0.007,0.023,0.013,0.054,0.015,0.077c0.064,0.047,0.337,0.192,0.34,0.193c0.016,0.001,0.02,0.002,0.025,0.002
	c0.092-0.047,0.2-0.016,0.293-0.059l0.002-0.029c0.103-0.012,0.179-0.011,0.253-0.009c0.019-0.013,0.048-0.025,0.068-0.028h0.014
	c0.016,0.016,0.031,0.04,0.041,0.06c0.079,0.017,0.126,0.018,0.176,0.019l0.02,0.03l-0.021,0.028c-0.184,0-0.21,0-0.264,0.146
	c-0.155,0.059-0.305-0.101-0.46-0.007c-0.062-0.021-0.062-0.021-0.104,0.001c-0.001,0.021-0.016,0.049-0.029,0.063
	c1.132,0.061,2.256,0.081,3.306,0.093c-1.049-0.012-2.174-0.033-3.31-0.062c-0.012-0.002-0.022-0.009-0.035-0.009l-0.018,0.001
	L15.26,4.805c-0.014-0.004-0.017-0.006-0.035-0.024l-0.003-0.029L15.21,4.749c-0.015,0.001-0.029-0.002-0.045,0
	c-0.001,0-0.009,0.001-0.021,0.009c-0.013,0.007-0.013,0.007-0.013,0.008l-0.003,0.028l0.02,0.016
	c0.029,0.008,0.03,0.008,0.03,0.008h0.002h0.002h0.002h0.002h0.002h0.001h0.002c-0.036,0.018-0.087,0.039-0.125,0.052
	c0,0.019,0.001,0.045,0.003,0.066C15.14,4.97,15.14,4.97,15.247,4.974c0.027-0.029,0.066-0.067,0.098-0.09
	c0.076,0.036,0.112,0.119,0.188,0.155c-0.001,0.018-0.004,0.044-0.006,0.064c-0.033,0.012-0.073,0.05-0.088,0.083
	c-0.021,0.04-0.04,0.04-0.06,0.039c-0.02-0.004-0.046-0.009-0.063-0.013c-0.009-0.017-0.021-0.039-0.03-0.056
	c-0.039-0.044-0.049-0.044-0.059-0.044c-0.002-0.019-0.005-0.044-0.006-0.062C15.2,5.049,15.18,5.049,15.158,5.048
	c-0.019,0.032-0.054,0.068-0.085,0.09c-0.019,0.142-0.08,0.423-0.08,0.423c0.012,0.012,0.03,0.028,0.042,0.04l-0.014,0.032
	c-0.236-0.048-0.236-0.048-0.302-0.006c0.014,0.037,0.043,0.081,0.07,0.107l-0.006,0.033l-0.033,0.007
	c-0.072-0.048-0.139-0.109-0.214-0.154c-0.502,0.223-0.637,0.282-0.625,0.056l-0.064-0.002c-0.027,0.021-0.077,0.035-0.112,0.031
	c-0.032-0.003-0.053-0.003-0.075-0.004c-0.02,0.001-0.048,0.003-0.068,0.004C13.59,5.724,13.59,5.749,13.59,5.767
	c-0.027,0.038-0.05,0.037-0.071,0.037c-0.019-0.005-0.042-0.011-0.061-0.016c-0.014-0.027-0.04-0.063-0.065-0.078
	c-0.021-0.001-0.044-0.002-0.065-0.003c0.001-0.019,0.003-0.038,0.004-0.057c0.004-0.018,0.008-0.043,0.013-0.061
	c0.044-0.003,0.086-0.002,0.128,0c0.062,0.017,0.118,0.056,0.186,0.058c0.025-0.031,0.076-0.096,0.078-0.292
	c-0.021-0.017-0.041-0.018-0.062-0.019c-0.123,0.029-0.123,0.029-0.157,0.075c-0.028,0.016-0.035,0.016-0.04,0.016h-0.002
	c-0.008-0.018-0.018-0.041-0.023-0.058c0.012-0.016,0.029-0.035,0.041-0.049c0.011-0.043,0.011-0.059,0.012-0.076
	c-0.018,0.002-0.043,0.005-0.062,0.006c-0.033-0.247-0.033-0.247-0.064-0.26c-0.13,0.138-0.13,0.138-0.177,0.141
	c-0.01,0.015-0.025,0.036-0.036,0.051c0.007,0.034,0.007,0.039,0.005,0.045c-0.026,0.024-0.069,0.049-0.104,0.063
	c-0.041,0.106,0.071,0.188,0.047,0.292c-0.002,0.015-0.003,0.026-0.004,0.038l-0.023,0.072c0.014,0.036,0.03,0.081,0.044,0.117
	c-0.002,0.041-0.003,0.062-0.006,0.084c-0.016-0.001-0.031-0.001-0.05-0.002c-0.018,0.003-0.043,0.006-0.063,0.009
	c-0.074,0.004-0.088,0.003-0.103,0.002c-0.144-0.025-0.144-0.025-0.438,0.178c-0.055-0.026-0.064-0.026-0.077-0.027
	c-0.011,0-0.021,0-0.032-0.001h-0.061c-0.008,0.021-0.01,0.044-0.014,0.065l0.062,0.035c-0.007,0.037-0.012,0.075-0.017,0.111
	c-0.106,0.005-0.129,0.013-0.279,0.135c-0.038,0.018-0.051,0.018-0.062,0.017c-0.02,0-0.045,0-0.063-0.001
	C11.87,6.48,11.859,6.55,11.849,6.62c-0.102-0.002-0.114,0.001-0.191,0.018c-0.014,0.036-0.021,0.072-0.026,0.107
	c-0.041-0.001-0.084-0.003-0.125-0.004c-0.034-0.02-0.035-0.02-0.035-0.02c-0.021,0-0.045,0-0.063-0.001
	c-0.042-0.023-0.04-0.035-0.037-0.047c-0.016-0.01-0.038-0.024-0.055-0.035c-0.039,0.041-0.046,0.077-0.052,0.111
	c0.018,0.009,0.044,0.021,0.062,0.029c-0.014,0.021-0.032,0.048-0.046,0.069l0.011,0.037c-0.003,0.014-0.006,0.03-0.009,0.045
	c-0.087,0.005-0.171-0.021-0.258-0.021C11.014,6.892,11,6.871,10.99,6.855c-0.183,0.037-0.183,0.037-0.232,0.084
	c0.018,0.052,0.028,0.052,0.039,0.052c0.023,0.03,0.063,0.063,0.097,0.079c0.071,0,0.084,0,0.095,0c0.11,0.106,0.11,0.106,0.13,0.14
	c0.026,0.104,0.017,0.167,0.005,0.232c0.04,0.048,0.094,0.08,0.135,0.128c-0.017,0.088-0.018,0.09-0.181,0.506
	c-0.04,0.022-0.097,0.046-0.139,0.062c-0.029,0-0.041-0.001-0.053-0.001c-0.093-0.043-0.213-0.025-0.282-0.121
	c-0.148-0.019-0.252-0.023-0.357-0.027c-0.138-0.022-0.138-0.022-0.178-0.054l-0.018-0.001c-0.014,0.013-0.03,0.032-0.043,0.045
	C9.92,8.022,9.862,8.02,9.806,8.017L9.778,8.055c0.093,0.14-0.049,0.285,0.008,0.426C9.772,8.556,9.758,8.632,9.745,8.708
	C9.589,8.969,9.589,8.969,9.624,9.051c0.017,0.063,0.015,0.077,0.012,0.09L9.628,9.18C9.576,9.251,9.576,9.251,9.571,9.365
	c0.035,0.015,0.07,0.017,0.107,0.018c0.074-0.017,0.1-0.022,0.169,0.056c0.039-0.003,0.089-0.012,0.126-0.023
	c0.015,0.012,0.015,0.012,0.14,0.085c0.017,0.033,0.037,0.081,0.048,0.118c0.018-0.004,0.041-0.009,0.06-0.013l-0.036-0.012
	c0.349-0.107,0.626-0.398,1.018-0.395c0.063-0.05,0.066-0.094,0.072-0.137c-0.019-0.035-0.05-0.078-0.079-0.106
	c0.007-0.039,0.007-0.039,0.128-0.234c0.07-0.12,0.556-0.218,0.56-0.219c0.043-0.041,0.047-0.08,0.051-0.119
	c0.002-0.012,0.004-0.025,0.005-0.038c-0.006-0.168-0.011-0.313,0.245-0.243c0.03,0.004,0.031,0.004,0.031,0.004h0.004h0.002h0.003
	l0.002,0.001h0.002h0.003h0.002c0.109,0.065,0.109,0.065,0.2,0.073c0.017,0.001,0.034,0.001,0.054,0.002
	c0.018,0,0.045-0.001,0.064-0.001c0.019-0.079,0.021-0.089,0.092-0.162c0.055-0.001,0.068,0,0.081,0
	c0.059,0.003,0.103,0.006,0.217-0.112c0.226,0.032,0.21,0.296,0.372,0.387c0.033,0.021,0.065,0.064,0.081,0.099
	c0.547,0.38,0.818,0.654,0.808,0.815c-0.1,0.037-0.498,0.095-0.636,0.092c-0.009,0.014-0.021,0.033-0.029,0.048
	c0.107,0.052,0.17,0.167,0.287,0.206c0.1,0.005,0.178,0.007,0.256,0.009c0.002-0.05,0.004-0.101,0.004-0.15
	c0.172-0.066,0.267-0.226,0.402-0.336C14.48,9.004,14.48,8.99,14.48,8.975c-0.073,0.003-0.101,0.002-0.126,0.001
	c-0.039-0.021-0.038-0.036-0.038-0.05c0.061-0.059,0.112-0.056,0.163-0.055c0.1,0.037,0.1,0.037,0.156,0.093
	c0.001-0.004,0.001-0.004-0.011-0.186c-0.115-0.094-0.283-0.124-0.359-0.272c-0.045-0.001-0.145-0.003-0.321-0.162
	c0.028-0.064,0.028-0.064-0.163-0.215c-0.021-0.021-0.033-0.021-0.046-0.021c-0.006-0.04-0.021-0.092-0.037-0.128
	c-0.041-0.004-0.094-0.006-0.136-0.005c0.003-0.033,0.005-0.065,0.006-0.099l0.037-0.036c0.038-0.032,0.039-0.039,0.039-0.045
	c-0.017-0.033-0.026-0.083-0.024-0.12c0.13-0.042,0.144-0.008,0.182,0.105c0.285,0.037,0.358,0.386,0.637,0.434
	c0.003,0.012,0.006,0.026,0.009,0.038c0.114,0.132,0.313,0.155,0.405,0.317c-0.081,0.217-0.081,0.217,0.008,0.281
	c0.002,0.1,0.006,0.214,0.166,0.226c0.058,0.071,0.058,0.124,0.059,0.177c-0.032-0.001-0.065-0.002-0.097-0.003
	c-0.011-0.015-0.025-0.035-0.035-0.051c-0.012,0.016-0.026,0.035-0.038,0.049c0.093,0.144,0.093,0.144,0.197,0.177
	c0.006-0.016,0.016-0.036,0.023-0.051c0.067,0.041,0.072,0.043,0.144,0.125c-0.008,0.039-0.005,0.093,0.006,0.132
	c0.061,0.019,0.09,0.019,0.12,0.02c0.019-0.001,0.045-0.002,0.064-0.002c0.022-0.03,0.052-0.072,0.072-0.105
	c-0.003-0.024-0.003-0.037-0.003-0.051c-0.005-0.017-0.01-0.042-0.014-0.059c0.014-0.011,0.035-0.026,0.05-0.037
	c0.036,0.01,0.083,0.03,0.114,0.051c0.031-0.001,0.044,0,0.056,0c0.015-0.013,0.032-0.03,0.046-0.043
	c0-0.034,0.001-0.081,0.002-0.115c0.037,0.002,0.086,0,0.122-0.006c-0.044-0.067-0.058-0.086-0.142-0.124
	c-0.004,0.038-0.02,0.089-0.039,0.122c-0.092-0.021-0.104-0.055-0.17-0.246c-0.103-0.038-0.103-0.038-0.164-0.091
	c-0.002-0.052-0.002-0.064-0.002-0.078l0.068-0.018c0.028,0.023,0.074,0.048,0.108,0.063c0.06,0,0.072,0,0.085,0
	c0.012,0,0.026,0.001,0.038,0.001c0.009-0.034,0.007-0.084-0.004-0.117c0.073-0.062,0.073-0.062,0.41,0.058
	c0.002,0.018,0.003,0.042,0.005,0.06c0.013,0.007,0.03,0.014,0.043,0.02l0.031,0.07C16.165,9.01,16.141,9.02,16.12,9.027
	c-0.01,0.124,0.17,0.16,0.138,0.295c0.002,0.02,0.005,0.044,0.006,0.064c-0.001,0.027-0.001,0.038,0,0.049
	c0.015,0.034,0.04,0.077,0.063,0.107l0.016,0.021l0.021,0.011l0.015,0.021l0.026,0.021l0.02,0.016
	c0.007,0.018,0.014,0.043,0.019,0.061l-0.02,0.024l-0.009,0.021l-0.01,0.024c0.003,0.036,0.01,0.084,0.021,0.118l0.021,0.02
	l0.019,0.016l0.042-0.065l0.013-0.051c-0.001-0.024-0.002-0.058-0.008-0.081c0.014-0.06,0.025-0.06,0.036-0.06l0.02,0.006
	l0.021,0.015l0.017,0.02l0.02,0.017c0.021,0.019,0.048,0.043,0.066,0.062l0.021,0.025l0.018,0.021l0.02,0.011h0.02
	c0.03,0.002,0.072,0.008,0.1,0.023c0.048,0.006,0.056,0.006,0.064,0.006l0.018-0.01l0.021-0.014l-0.007-0.021l0.003-0.021
	c-0.006-0.031-0.005-0.076,0.008-0.106l0.01-0.019l0.028-0.021c0.037-0.002,0.091,0.009,0.128,0.023l0.057,0.056l0.072,0.058
	l0.016,0.02l0.021,0.015l0.02,0.007l0.027,0.01c0.089,0.002,0.177,0.003,0.264,0.006c-0.002-0.019-0.005-0.043-0.006-0.061
	c-0.002-0.019-0.002-0.027-0.003-0.036c-0.002-0.018-0.004-0.042-0.006-0.06c0.016-0.005,0.036-0.011,0.053-0.015l0.018-0.004
	l0.029,0.001c0.041,0.009,0.092,0.038,0.122,0.066c0.048,0.006,0.054,0.006,0.062,0.006l0.02-0.01l0.008-0.019l0.018-0.015
	l0.021,0.005l0.038,0.052l0.006,0.019c0.004,0.04,0,0.093-0.007,0.132c-0.022,0.072-0.042,0.142,0.003,0.225l0.006,0.02
	c0.008,0.016,0.021,0.038,0.029,0.054c-0.007,0.019-0.014,0.045-0.021,0.064l-0.018,0.015l-0.008,0.02l-0.006,0.072L17.958,10.4
	c-0.065,0.113-0.065,0.113-0.109,0.137l-0.019,0.014l-0.02,0.021l-0.003,0.021c0.787,0.036,1.56,0.048,2.304,0.057
	c-0.744-0.009-1.517-0.021-2.305-0.037c0,0.002-0.04,0.198-0.093,0.243l-0.02,0.021l-0.019,0.015h-0.021
	c-0.028-0.001-0.028-0.001-0.104,0.018h-0.024l-0.021,0.005l-0.019,0.01l-0.021,0.019c-0.019-0.001-0.043-0.011-0.06-0.02
	c-0.01-0.012-0.024-0.026-0.039-0.036c-0.014-0.003-0.021-0.003-0.028-0.003c0,0-0.095-0.005-0.17-0.029l-0.022-0.001h-0.023
	l-0.021,0.013c0.063,0.043,0.087,0.047,0.2,0.066c0.015,0.017,0.015,0.031,0.016,0.045l0.001,0.026
	c0.012,0.021,0.032,0.037,0.043,0.058c0.004,0.017,0.005,0.042,0.004,0.06l0.003,0.02l-0.003,0.026
	c0.001,0.121,0.102,0.191,0.149,0.288c0.068,0.105,0.079,0.113,0.129,0.146c0.033,0.006,0.047,0.007,0.062,0.007
	c0.075,0.007,0.077-0.074,0.117-0.109c0.008,0.011,0.02,0.026,0.027,0.037c0.061,0.097,0.162,0.16,0.223,0.257l0.187,0.394
	c0.001,0.028,0.001,0.035,0.002,0.042c-0.016,0.058-0.02,0.138,0.017,0.192c0.041,0.06,0.123,0.037,0.169,0.083
	c0.017,0.015,0.212,0.37,0.212,0.373c0.061,0.131-0.085,0.328,0.098,0.412c0,0,0.209,0.155,0.258,0.316
	c0.025,0.086,0.043,0.099,0.073,0.122c0.089,0.067,0.089,0.067,0.333,0.69c-0.004,0.141-0.012,0.268-0.019,0.395
	c0.042,0.197,0.31,0.25,0.394,0.149c0.136-0.162,0.136-0.162,0.189-0.172c0.075,0.001,0.148,0.001,0.222,0.003h0.018
	c0.013,0.009,0.027,0.023,0.038,0.034h0.025c0.018-0.026,0.039-0.061,0.058-0.087c0.131-0.218,0.424-0.128,0.577-0.304
	c0.037-0.053,0.038-0.054,0.165-0.043l0.021-0.021c0.001-0.103,0.001-0.109,0.037-0.147c0.029,0.005,0.035,0.006,0.114-0.047
	c0.044-0.03,0.044-0.03,0.343-0.014c0-0.002,0.004-0.152,0.053-0.235c0.063-0.011,0.12-0.011,0.177-0.01
	c0.025-0.105,0.07-0.2,0.071-0.201c0.019-0.404,0.011-0.792-0.006-1.175l-0.017,0.021c-0.032-0.04-0.025-0.092-0.041-0.136
	c-0.027-0.01-0.027-0.01-0.052-0.052c-0.007-0.077-0.012-0.149-0.016-0.221c-0.025-0.041-0.025-0.041-0.047-0.06
	c-0.11,0.037-0.11,0.037-0.132,0.361c-0.042,0.011-0.085,0.001-0.127,0.001c-0.032-0.001-0.045-0.002-0.057-0.002
	c-0.032-0.013-0.061-0.029-0.093-0.041c-0.026-0.003-0.033-0.003-0.041-0.003c-0.093,0.092-0.093,0.092-0.13,0.138
	c-0.001,0-0.147-0.018-0.16-0.202c0.011-0.004,0.026-0.01,0.037-0.015c0.04-0.032,0.047-0.033,0.073-0.041
	c0.019-0.001,0.025-0.001,0.031-0.001c0.212,0.103,0.204-0.029,0.203-0.031l-0.018-0.021c-0.031-0.01-0.042-0.01-0.054-0.01
	c-0.016,0.001-0.035,0.004-0.052,0.007c-0.029,0.001-0.044,0.001-0.056,0.001c-0.1-0.031-0.205-0.033-0.304-0.063
	c-0.03-0.004-0.045-0.004-0.061-0.004c-0.004-0.071-0.009-0.143-0.012-0.214c-0.036-0.054-0.038-0.06-0.274-0.146
	c-0.048-0.187-0.169-0.353-0.147-0.558c0.017-0.146,0.213-0.059,0.216-0.058c0.015,0.008,0.015,0.008,0.141,0.142
	c0.082,0.088,0.082,0.088,0.156,0.229c0.045,0.087,0.149,0.101,0.209,0.169c0.107,0.121,0.135,0.153,0.41,0.183
	c0.026,0.002,0.032,0.002,0.04,0.002h0.034c0.035-0.025,0.079-0.013,0.116-0.032c0.028-0.011,0.04-0.011,0.051-0.01
	c0.063,0.003,0.063,0.003,0.131,0.07l0.004,0.005c0.041,0.068,0.028,0.17,0.124,0.205c0.067,0,0.123,0.001,0.178,0.001
	c0.104-0.033,0.133,0.077,0.204,0.108h0.161c0.021,0.009,0.046,0.023,0.068,0.032h0.255l0.181-0.043h0.164
	c0.003,0.001,0.265,0.23,0.281,0.422c0.011,0,0.024,0.002,0.037,0.003c0.014,0.021,0.014,0.021,0.05,0.095h0.054
	c0.039,0.003,0.057,0.005,0.162,0.081c-0.244,0.011-0.121,0.142-0.12,0.143c0.1,0.07,0.08,0.255,0.249,0.257
	c0.077-0.097,0.077-0.097,0.101-0.106c0.006-0.022,0.014-0.051,0.021-0.073c0.011-0.006,0.025-0.013,0.035-0.019
	c0.111,0.079,0.115,0.489,0.115,0.493v0.121c-0.067,0.479,0.223,0.913,0.183,1.39c-0.001,0.015-0.002,0.029-0.003,0.044
	c-0.049,0.265,0.06,0.515,0.074,0.775c0.01,0.018,0.022,0.045,0.031,0.064c0.01,0.001,0.022,0.004,0.033,0.005
	c0.17-0.142,0.17-0.142,0.387-1.092c0.006-0.082,0.013-0.164,0.019-0.246c0.012-0.244,0.012-0.244,0.048-0.293
	c0.229,0.014,0.416-0.763,0.418-0.771c0.003-0.001,0.003-0.001,0.081-0.156c0.022-0.006,0.023-0.006,0.023-0.006h0.002l0.001-0.001
	h0.001h0.001h0.002h0.001h0.001c0.039-0.036,0.039-0.036,0.043-0.287c0.027-0.035,0.052-0.036,0.077-0.037l0.023,0.026
	c0.021,0.005,0.023,0.005,0.026,0.005c0.023-0.056,0.069-0.101,0.076-0.163c0.025-0.007,0.05-0.007,0.073-0.009
	c-0.002-0.044-0.005-0.088-0.008-0.131l0.033,0.007c0.056,0.118,0.074,0.274,0.106,0.535c0.047,0.13,0.047,0.13,0.06,0.177
	c0,0.021,0,0.037,0,0.052c-0.003,0.05-0.003,0.05-0.003,0.118v0.015l0.034,0.002c0.095,0.188-0.067,0.387,0.029,0.574
	c0.021-0.004,0.024-0.004,0.029-0.005c0.021-0.044,0.024-0.052,0.06-0.096c0.009-0.023,0.01-0.038,0.01-0.053
	c0.001-0.015,0.002-0.03,0.002-0.045c0.004-0.011,0.007-0.026,0.009-0.038c0.119,0.113,0.057,0.601-0.06,1.483
	c-0.003,0.032-0.005,0.046-0.008,0.061c-0.044,0.207,0.006,0.419-0.032,0.626c-0.008,0.037-0.01,0.041-0.01,0.046
	c-0.021,0.113-0.027,0.229-0.046,0.342c-0.023,0.101-0.041,0.176-0.061,0.251c-0.016,0.1-0.051,0.309-0.033,0.478l0.005,0.002
	c0.038-0.095,0.038-0.162,0.038-0.162c0.017-0.101,0.128-0.564,0.129-0.568c0.008-0.032,0.012-0.046,0.015-0.061
	c0.001-0.011,0.004-0.024,0.006-0.036c0.006-0.019,0.008-0.033,0.011-0.047c0.002-0.012,0.005-0.026,0.007-0.038
	c0.011-0.042,0.016-0.07,0.022-0.099c-0.025-0.04-0.026-0.455-0.002-0.6c0.005-0.027,0.007-0.041,0.008-0.056
	c0.008-0.042,0.008-0.042-0.01-0.083c0.01-0.073,0.021-0.146,0.031-0.218c0.014-0.082,0.106-0.557,0.107-0.56
	c0.04,0.072,0.01,0.15,0.022,0.225c0.009,0.011,0.01,0.011,0.011,0.011l0.014-0.032c0.033,0.143,0.033,0.143-0.048,0.911
	c0.194-0.711,0.194-0.711,0.23-1.065c0.006-0.052,0.011-0.105,0.016-0.158c0.028-0.313,0.028-0.313,0.01-0.655
	c-0.02-0.222-0.026-0.751,0.013-1.042c0.021-0.002,0.021,0.015,0.022,0.032c0,0.011,0.001,0.028,0.001,0.038
	c0.003,0.087,0.006,0.168,0.007,0.248c-0.002,0.111-0.013,0.221-0.013,0.332c0.012,0.025,0.019,0.021,0.024,0.019
	C26.599,13.337,26.598,13.331,26.592,13.28"/>
<path fill="#593513" d="M5.937,3.258L5.933,3.27L5.919,3.285l-0.043,0.04l0.008,0.004l0.125-0.093l0.024-0.029l0.156-0.117
	L6.2,3.073l0.123-0.094l0.033-0.027c0.032-0.021,0.063-0.043,0.095-0.064L6.426,2.908l0.07-0.045l0.077-0.052l0.004,0.003
	l0.115-0.072l0.119-0.07l0.1-0.06l0.103-0.067l0.176-0.108l0.034-0.013l0.135-0.077l0.133-0.079L7.56,2.226l0.106-0.064l0.005,0.004
	l0.074-0.038L7.732,2.141L7.655,2.187l0.017-0.001l0.047-0.016L7.85,2.093l0.032-0.012L7.735,2.167L7.729,2.178L7.588,2.26
	L7.572,2.278L7.471,2.34l-0.04,0.034l-0.126,0.08L7.27,2.49L7.152,2.574L6.999,2.672L6.813,2.776L6.632,2.881L6.489,2.99
	L6.423,3.007l0.021-0.028L6.428,2.977L6.286,3.061c-0.045,0.032-0.09,0.065-0.134,0.097L6.139,3.188l0.025-0.002l0.079-0.054
	l0.052-0.028l-0.012,0.02l-0.03,0.049L6.104,3.315l-0.09,0.077l-0.1,0.1c0.01,0.002,0.021,0.004,0.031,0.005L5.827,3.633
	l0.051,0.015L5.851,3.712l0.095-0.079l0.129-0.171l0.063-0.074l0.084-0.078L6.172,3.385L6.096,3.519L6.053,3.594
	c0.046-0.04,0.092-0.078,0.138-0.117l0.148-0.1l0.04-0.068L6.57,3.154l0.023-0.063l0.213-0.197l0.091-0.049l0.084-0.044L6.809,2.986
	L6.683,3.104l0.013,0.022l0.187-0.131l0.113-0.043l0.079-0.051c0.01,0.001,0.02,0.002,0.032,0.004l0.095-0.059L7.32,2.761
	C7.3,2.759,7.277,2.756,7.257,2.754c0.022-0.015,0.046-0.03,0.066-0.045l0.074-0.077L7.391,2.62l0.031-0.048L7.397,2.569
	l0.087-0.061l0.077-0.055C7.547,2.453,7.535,2.451,7.522,2.45L7.516,2.442c0.049-0.03,0.1-0.061,0.148-0.089L7.69,2.355l0.084-0.038
	l0.018-0.036l0.066-0.034L7.894,2.24l0.086-0.063l0.02-0.027l0.109-0.052l0.046-0.041H8.12l0.078-0.041L8.189,2.007L8.2,1.997
	l0.098-0.039l0.035-0.03L8.256,1.95l0.135-0.073l0.084-0.041L8.471,1.829l0.104-0.047l0.06-0.038L8.616,1.74L8.527,1.777
	L8.501,1.783l0.023-0.014L8.417,1.814L8.402,1.817l0.133-0.061l0.129-0.054l0.169-0.074l0.155-0.063L8.981,1.562L8.864,1.605
	L8.854,1.608L8.774,1.637L8.619,1.703L8.455,1.776L8.35,1.822L8.151,1.917L8.131,1.923l0.172-0.082l0.229-0.104L8.688,1.67
	l0.164-0.066l0.138-0.051V1.549L8.962,1.558L8.773,1.633L8.545,1.729l-0.394,0.18l-0.022,0.01L8.117,1.925L7.993,1.986l0.031-0.017
	l-0.03,0.016L7.926,2.019L7.829,2.067L7.825,2.071l0.036-0.019l-0.096,0.05L7.685,2.15L7.637,2.171l-0.129,0.07L7.417,2.292
	L7.283,2.368C7.023,2.521,6.736,2.703,6.488,2.86L6.468,2.873L6.28,3.001C6.204,3.054,6.127,3.109,6.055,3.164l-0.05,0.034
	l-0.1,0.076l-0.011,0.01c-0.03,0.023-0.061,0.046-0.102,0.08l0.028-0.02L5.937,3.258z"/>
<path fill="#593513" d="M9.65,3.574C9.666,3.575,9.68,3.575,9.693,3.576C9.743,3.574,9.79,3.567,9.839,3.57
	c0.015,0,0.03,0.001,0.048,0.002c0.044-0.003,0.044-0.003,0.039,0.043c0,0.001,0.004,0.052,0.075,0.046
	c0.035-0.004,0.069,0.014,0.103,0c0.04-0.015,0.04-0.015,0.118-0.086c0.012-0.011,0.08-0.047,0.081-0.047
	c0.026-0.012,0.061,0,0.085-0.019c0.041-0.032,0.056-0.043,0.12-0.059c0.041-0.01,0.041-0.01,0.214-0.001
	c0.02-0.034,0.039-0.068,0.059-0.102c0-0.017,0.014-0.033,0.007-0.051c-0.024-0.021-0.024-0.021-0.075-0.028
	c0.083-0.11,0.083-0.11,0.111-0.16c-0.035-0.001-0.071-0.003-0.105-0.004c-0.011,0-0.018,0-0.04,0.006
	c-0.068,0.019-0.12,0.07-0.188,0.084c-0.025,0.005-0.044-0.014-0.064-0.021c-0.025-0.007-0.037-0.011-0.073-0.01
	c-0.07,0.003-0.132,0.049-0.203,0.054c-0.027-0.002-0.055-0.003-0.082-0.004c0.013-0.017,0.024-0.033,0.036-0.05
	c0.013-0.016,0.024-0.032,0.036-0.048c0.008-0.016,0.001-0.034,0.007-0.05l-0.051,0.01c-0.012,0.016-0.024,0.032-0.038,0.048
	c-0.001-0.001-0.192-0.109-0.322,0.112C9.769,3.233,9.798,3.219,9.83,3.213l0.049,0.001l0.025,0.066
	c0.009,0.036-0.032,0.041-0.046,0.063c-0.074-0.032-0.16-0.019-0.212-0.01C9.632,3.357,9.614,3.387,9.599,3.411
	C9.617,3.408,9.633,3.402,9.651,3.4C9.68,3.402,9.709,3.403,9.738,3.404l0.001,0.014C9.715,3.452,9.689,3.486,9.666,3.52L9.65,3.574
	z"/>
<path fill="#593513" d="M11.893,6.214c0.024,0.005,0.024,0.005,0.049-0.068c0.023,0.001,0.045,0.002,0.066,0.003
	c0.003-0.023,0.008-0.046,0.008-0.071c-0.049-0.036-0.041-0.073-0.036-0.096c-0.014-0.022-0.039-0.032-0.058-0.048l-0.033,0.007
	C11.886,5.969,11.885,6,11.826,6.028c-0.042,0.02-0.042,0.02-0.033-0.19c-0.032-0.001-0.064-0.002-0.096-0.003
	c0.042-0.131,0.054-0.165-0.042-0.184c-0.006-0.011-0.007-0.023-0.01-0.034l-0.029-0.014c0.014-0.044-0.002-0.055-0.041-0.083
	l0.003-0.024c0.013-0.033-0.032-0.124-0.071-0.129c-0.111-0.011-0.111-0.011-0.133-0.053c0.06-0.077,0.06-0.077,0.138-0.09
	c0.003-0.011,0.006-0.021,0.01-0.039c0.008-0.054,0.076-0.052,0.093-0.099c0.011-0.042,0.021-0.083,0.031-0.125
	c-0.096-0.004-0.192-0.007-0.284-0.015c0.066-0.084,0.066-0.084,0.07-0.098c0.011-0.054,0.074-0.045,0.101-0.081
	c-0.011-0.024-0.012-0.027-0.032-0.03l-0.03,0.002c-0.015-0.001-0.028-0.002-0.046-0.002c-0.047,0.013-0.096-0.016-0.143,0.004
	c-0.013,0.045-0.046,0.078-0.067,0.118c-0.018,0.034-0.02,0.073-0.033,0.108C11.1,4.971,11.1,4.971,11.096,4.97
	c-0.021-0.006-0.014-0.034-0.034-0.038l-0.027,0.001C10.98,4.948,10.98,5.038,10.98,5.039c0.007,0.042,0.053,0.03,0.078,0.046
	L11.037,5.11c-0.003,0.01-0.006,0.021-0.011,0.036c-0.018,0.03,0.001,0.092-0.049,0.094c-0.088,0.005-0.09,0.038-0.092,0.063
	l-0.004,0.025c0.021,0,0.041,0.001,0.068-0.001c0.021-0.012,0.026-0.017,0.054-0.004c0.007,0.047,0.007,0.047,0.016,0.058
	c0.02,0.002,0.041,0.002,0.064-0.005c0.003-0.021,0.003-0.021,0.029-0.056l0.02,0.034c-0.022,0.036,0.011,0.074-0.006,0.11
	c-0.017,0.033-0.066,0.01-0.081,0.048c-0.007,0.016-0.007,0.016,0.007,0.058c0.051,0.002,0.103,0.004,0.154,0.006l0.023-0.032
	c0.083,0.05-0.027,0.165,0.066,0.209l0.016,0.009c-0.01,0.026-0.032,0.063-0.025,0.09c0.01,0.036,0.008,0.054-0.031,0.078
	c-0.065,0.038-0.109-0.035-0.167-0.035l-0.016-0.001c-0.028-0.003-0.028-0.003-0.063,0.031L10.989,5.96
	c-0.019,0.001-0.039-0.002-0.06-0.003L10.914,5.99c0.047,0.037,0.104,0.012,0.154,0.023c-0.003,0.026-0.006,0.037-0.022,0.067
	c-0.012,0-0.023-0.001-0.038,0.002c-0.1,0.06-0.1,0.06-0.103,0.06h-0.003H10.9h-0.003h-0.003h-0.002H10.89h-0.002l-0.003-0.001
	c-0.019,0.049-0.025,0.064-0.005,0.104c0.055,0.004,0.106-0.051,0.163-0.008c0.051,0.039,0.114-0.011,0.164,0.026
	c0.004,0.033-0.005,0.053-0.022,0.061c-0.013,0.005-0.056,0.02-0.133,0.013c-0.039-0.003-0.048,0.044-0.081,0.052
	c-0.032,0.007-0.065,0.007-0.097,0.012c-0.024,0.119-0.024,0.119-0.145,0.153c0.038,0.028,0.038,0.028,0.133,0.005
	c0.043-0.02,0.043-0.02,0.055-0.047c0.012-0.004,0.012-0.004,0.069,0.025c0.033,0.002,0.065,0.002,0.099,0.004
	c0.016-0.075,0.021-0.08,0.036-0.093c0.067,0.012,0.136,0.006,0.203,0.015c0.049,0.006,0.053-0.066,0.103-0.058
	c0.045,0.008,0.063,0.057,0.107,0.064l0.021,0.001c0.051-0.014,0.108,0.018,0.156-0.019c0.053-0.042,0.053-0.042,0.062-0.042
	c0.041,0.002,0.041,0.002,0.077-0.016l0.015-0.035C11.85,6.333,11.83,6.302,11.83,6.272c0-0.006,0.002-0.012,0.005-0.023
	C11.838,6.236,11.843,6.203,11.893,6.214"/>
<path fill="#593513" d="M10.784,5.9c0.01-0.044,0.028-0.087,0.036-0.133c0.006-0.021,0.012-0.043,0.017-0.064
	c0.061,0.002,0.086-0.026,0.1-0.051c0.005-0.01,0.018-0.045-0.014-0.081c-0.025-0.027,0.017-0.052,0.005-0.079
	c-0.004-0.005-0.007-0.014-0.023-0.026c-0.011-0.007-0.024,0.006-0.035-0.002l-0.02-0.024l-0.015-0.001
	c-0.025,0.001-0.083,0.021-0.084,0.022c-0.013,0.006-0.013,0.023-0.023,0.032C10.717,5.5,10.703,5.5,10.692,5.507L10.666,5.49
	c-0.009-0.013,0.001-0.033-0.018-0.042c-0.016-0.008-0.016-0.008-0.086-0.003c-0.016,0.055-0.045,0.105-0.055,0.162l0.016,0.001
	h-0.001l-0.015-0.001c-0.022-0.001-0.041,0.019-0.063,0.015c-0.026-0.004-0.046,0.012-0.069,0.019
	c-0.01,0.002-0.01,0.002-0.038-0.023c-0.012,0.002-0.026,0.005-0.038,0.007c-0.024,0.077-0.049,0.155-0.072,0.234
	c0.044,0.006,0.044,0.006,0.104,0.004c-0.009,0.035-0.02,0.07-0.031,0.105c-0.078,0.005-0.078,0.005-0.122,0.058L10.17,6.033
	c-0.015,0.021-0.008,0.05-0.022,0.07c-0.009,0.016-0.031,0.009-0.04,0.024l-0.01,0.017c-0.003,0.009-0.016,0.041,0.003,0.059
	c0.035,0.031,0.055,0.041,0.085,0.02c0.041-0.026,0.085-0.007,0.102,0.011c0.03,0,0.079-0.038,0.085-0.042
	c0.003-0.002,0.003-0.002,0.018-0.039c0.007-0.019,0.027-0.017,0.04-0.028c0.09,0.004,0.181,0.007,0.271,0.01
	c0.004-0.016,0.008-0.032,0.012-0.048c0.005-0.024-0.014-0.046-0.005-0.071c0.006-0.018,0.029-0.007,0.039-0.02
	C10.771,5.964,10.771,5.964,10.784,5.9"/>
<path fill="#593513" d="M4.46,6.113c0.063-0.065,0.07-0.1,0.077-0.135L4.52,5.971c0,0-0.047,0.013-0.066,0.034
	c-0.05,0.05-0.075,0.119-0.124,0.171C4.213,6.297,4.074,6.396,3.961,6.52C3.908,6.577,3.908,6.577,3.823,6.731
	c0.074,0.006,0.152,0.013,0.234,0.021c0.021,0.007,0.024,0.016,0.019,0.074C4.063,6.93,4.073,6.952,4.087,6.977
	C4.098,6.967,4.1,6.964,4.12,6.955c0.014-0.006,0.039-0.019,0.115-0.18c0.047-0.096,0.047-0.096,0.127-0.18l0.017-0.018
	c0.008-0.021,0.02-0.05,0.028-0.071h-0.01C4.342,6.514,4.358,6.382,4.359,6.381c0.007-0.03,0.015-0.064-0.056-0.065
	C4.297,6.305,4.297,6.29,4.293,6.278c0.086-0.108,0.086-0.108,0.112-0.134C4.42,6.129,4.445,6.129,4.46,6.113"/>
<circle fill="none" stroke="#593513" stroke-width="1.8" stroke-miterlimit="10" cx="13.5" cy="13.5" r="12.6"/>
<line fill="none" stroke="#B5C4A3" stroke-miterlimit="10" x1="18.258" y1="13.506" x2="56.742" y2="13.506"/>
</svg>
